<svg width="14" height="14" viewBox="0 0 14 14" fill="none" xmlns="http://www.w3.org/2000/svg">
<path d="M10.6124 8.6241C10.4397 8.7998 10.3604 9.0539 10.3997 9.3031L10.9924 12.7471C11.0424 13.039 10.9251 13.3344 10.6924 13.5031C10.4644 13.6781 10.1611 13.6991 9.91241 13.5591L6.95979 11.9421C6.85713 11.8847 6.74313 11.8539 6.62647 11.8504H6.4458C6.38314 11.8602 6.3218 11.8812 6.26581 11.9134L3.31252 13.5381C3.16653 13.6151 3.0012 13.6424 2.8392 13.6151C2.44454 13.5367 2.18121 13.1419 2.24588 12.7254L2.8392 9.2814C2.87853 9.0301 2.7992 8.7746 2.62654 8.5961L0.219247 6.1461C0.0179169 5.941 -0.0520819 5.633 0.0399165 5.3551C0.129248 5.0779 0.357244 4.8756 0.632573 4.8301L3.94585 4.3254C4.19784 4.2981 4.41917 4.1371 4.5325 3.8991L5.99248 0.756098C6.02714 0.686098 6.07181 0.621698 6.12581 0.567098L6.18581 0.518098C6.21714 0.481698 6.25314 0.451598 6.29314 0.427098L6.3658 0.399098L6.47914 0.350098H6.7598C7.01046 0.377398 7.23112 0.534898 7.34645 0.770098L8.82576 3.8991C8.93242 4.128 9.13975 4.2869 9.37908 4.3254L12.6924 4.8301C12.9724 4.8721 13.2063 5.0751 13.299 5.3551C13.3863 5.6358 13.311 5.9438 13.1057 6.1461L10.6124 8.6241Z" fill="#FFBC47"/>
</svg>
