<svg width="14" height="14" viewBox="0 0 14 14" fill="none" xmlns="http://www.w3.org/2000/svg">
<path fill-rule="evenodd" clip-rule="evenodd" d="M6.99719 10.1655C6.75569 10.1655 6.55969 9.96946 6.55969 9.72796V8.24805C6.55969 8.00655 6.75569 7.81055 6.99719 7.81055C7.23869 7.81055 7.43469 8.00655 7.43469 8.24805V9.72796C7.43469 9.96946 7.23869 10.1655 6.99719 10.1655Z" fill="#808080"/>
<mask id="mask0_15358_11884" style="mask-type:luminance" maskUnits="userSpaceOnUse" x="1" y="2" width="12" height="7">
<path fill-rule="evenodd" clip-rule="evenodd" d="M1.16681 2.67163H12.8275V8.68638H1.16681V2.67163Z" fill="white"/>
</mask>
<g mask="url(#mask0_15358_11884)">
<path fill-rule="evenodd" clip-rule="evenodd" d="M2.04181 6.64588C3.42781 7.39896 5.17548 7.81138 6.99431 7.81138C8.81664 7.81138 10.5661 7.39896 11.9526 6.64588V4.89471C11.9526 4.15096 11.3512 3.54663 10.611 3.54663H3.38931C2.64614 3.54663 2.04181 4.14863 2.04181 4.88888V6.64588ZM6.99431 8.68638C4.92639 8.68638 2.93314 8.18588 1.38323 7.27821C1.24906 7.20005 1.16681 7.05655 1.16681 6.9008V4.88888C1.16681 3.66621 2.16373 2.67163 3.38931 2.67163H10.611C11.8336 2.67163 12.8276 3.66855 12.8276 4.89471V6.9008C12.8276 7.05655 12.7448 7.20005 12.6112 7.27821C11.0613 8.18588 9.06631 8.68638 6.99431 8.68638Z" fill="#808080"/>
</g>
<mask id="mask1_15358_11884" style="mask-type:luminance" maskUnits="userSpaceOnUse" x="4" y="1" width="6" height="3">
<path fill-rule="evenodd" clip-rule="evenodd" d="M4.51801 1.16663H9.47634V3.54423H4.51801V1.16663Z" fill="white"/>
</mask>
<g mask="url(#mask1_15358_11884)">
<path fill-rule="evenodd" clip-rule="evenodd" d="M9.03884 3.54429C8.79734 3.54429 8.60134 3.34829 8.60134 3.10679V2.89329C8.60134 2.42371 8.21926 2.04163 7.74967 2.04163H6.24467C5.77509 2.04163 5.39301 2.42371 5.39301 2.89329V3.10679C5.39301 3.34829 5.19701 3.54429 4.95551 3.54429C4.71401 3.54429 4.51801 3.34829 4.51801 3.10679V2.89329C4.51801 1.94129 5.29267 1.16663 6.24467 1.16663H7.74967C8.70167 1.16663 9.47634 1.94129 9.47634 2.89329V3.10679C9.47634 3.34829 9.28034 3.54429 9.03884 3.54429Z" fill="#808080"/>
</g>
<path fill-rule="evenodd" clip-rule="evenodd" d="M10.3804 12.6816H3.6137C2.40329 12.6816 1.3842 11.736 1.29262 10.5285L1.18179 9.06492C1.1637 8.824 1.34454 8.61342 1.58545 8.59533C1.82754 8.58658 2.03637 8.7575 2.05504 8.999L2.16529 10.462C2.22245 11.2157 2.85829 11.8066 3.6137 11.8066H10.3804C11.1358 11.8066 11.7722 11.2157 11.8288 10.462L11.9396 8.999C11.9583 8.7575 12.1724 8.586 12.4092 8.59533C12.6501 8.61342 12.8304 8.824 12.8123 9.06492L12.7015 10.5285C12.6099 11.736 11.5908 12.6816 10.3804 12.6816Z" fill="#808080"/>
</svg>
