<svg width="24" height="24" viewBox="0 0 24 24" fill="none" xmlns="http://www.w3.org/2000/svg">
<mask id="mask0_15358_11780" style="mask-type:luminance" maskUnits="userSpaceOnUse" x="4" y="14" width="16" height="8">
<path fill-rule="evenodd" clip-rule="evenodd" d="M4 14.496H19.8399V21.87H4V14.496Z" fill="white"/>
</mask>
<g mask="url(#mask0_15358_11780)">
<path fill-rule="evenodd" clip-rule="evenodd" d="M11.9209 15.996C7.65991 15.996 5.49991 16.728 5.49991 18.173C5.49991 19.631 7.65991 20.37 11.9209 20.37C16.1809 20.37 18.3399 19.638 18.3399 18.193C18.3399 16.735 16.1809 15.996 11.9209 15.996ZM11.9209 21.87C9.96191 21.87 3.99991 21.87 3.99991 18.173C3.99991 14.877 8.52091 14.496 11.9209 14.496C13.8799 14.496 19.8399 14.496 19.8399 18.193C19.8399 21.489 15.3199 21.87 11.9209 21.87Z" fill="#687978"/>
</g>
<mask id="mask1_15358_11780" style="mask-type:luminance" maskUnits="userSpaceOnUse" x="6" y="2" width="12" height="11">
<path fill-rule="evenodd" clip-rule="evenodd" d="M6.60986 2H17.2299V12.6186H6.60986V2Z" fill="white"/>
</mask>
<g mask="url(#mask1_15358_11780)">
<path fill-rule="evenodd" clip-rule="evenodd" d="M11.9209 3.42773C9.77989 3.42773 8.03789 5.16873 8.03789 7.30973C8.03089 9.44373 9.75989 11.1837 11.8919 11.1917L11.9209 11.9057V11.1917C14.0609 11.1917 15.8019 9.44973 15.8019 7.30973C15.8019 5.16873 14.0609 3.42773 11.9209 3.42773ZM11.9209 12.619H11.8889C8.9669 12.61 6.59989 10.227 6.60989 7.307C6.60989 4.382 8.99189 2 11.9209 2C14.8489 2 17.2299 4.382 17.2299 7.31C17.2299 10.238 14.8489 12.619 11.9209 12.619Z" fill="#687978"/>
</g>
</svg>
