<svg width="21" height="21" viewBox="0 0 21 21" fill="none" xmlns="http://www.w3.org/2000/svg">
<path fill-rule="evenodd" clip-rule="evenodd" d="M7.8875 4.85352C8.1317 4.85352 8.35389 5.00051 8.45774 5.23074L9.91195 8.4554L13.0076 9.97017C13.2286 10.0783 13.3697 10.3098 13.3697 10.5641C13.3697 10.8186 13.2286 11.05 13.0076 11.1582L9.91195 12.673L8.45774 15.8976C8.35389 16.1278 8.1317 16.2748 7.8875 16.2748C7.6433 16.2748 7.42111 16.1278 7.31728 15.8976L5.86308 12.673L2.76741 11.1582C2.54639 11.05 2.40527 10.8186 2.40527 10.5641C2.40527 10.3098 2.54639 10.0783 2.76741 9.97017L5.86308 8.4554L7.31728 5.23074C7.42111 5.00051 7.6433 4.85352 7.8875 4.85352ZM7.8875 7.05324L6.90689 9.22774C6.84443 9.36625 6.73748 9.47764 6.60453 9.54274L4.51702 10.5641L6.60453 11.5856C6.73748 11.6507 6.84443 11.7621 6.90689 11.9006L7.8875 14.0751L8.86808 11.9006C8.93058 11.7621 9.03751 11.6507 9.17048 11.5856L11.258 10.5641L9.17048 9.54274C9.03751 9.47764 8.93058 9.36625 8.86808 9.22774L7.8875 7.05324Z" fill="white"/>
<path fill-rule="evenodd" clip-rule="evenodd" d="M14.9185 2.45312C15.1627 2.45312 15.3848 2.60012 15.4887 2.83035L15.9331 3.81578L16.8791 4.27868C17.1001 4.38683 17.2412 4.6183 17.2412 4.87266C17.2412 5.12703 17.1001 5.35848 16.8791 5.46664L15.9331 5.92954L15.4887 6.91497C15.3848 7.1452 15.1627 7.2922 14.9185 7.2922C14.6743 7.2922 14.4521 7.1452 14.3483 6.91497L13.9038 5.92954L12.9578 5.46664C12.7368 5.35848 12.5957 5.12703 12.5957 4.87266C12.5957 4.6183 12.7368 4.38683 12.9578 4.27868L13.9038 3.81578L14.3483 2.83035C14.4521 2.60012 14.6743 2.45312 14.9185 2.45312ZM14.9185 4.64533C14.865 4.73877 14.79 4.81691 14.7002 4.87266C14.79 4.92841 14.865 5.00655 14.9185 5.09999C14.972 5.00655 15.047 4.92841 15.1367 4.87266C15.047 4.81691 14.972 4.73877 14.9185 4.64533Z" fill="white"/>
<path fill-rule="evenodd" clip-rule="evenodd" d="M15.6452 12.002C15.8894 12.002 16.1116 12.149 16.2154 12.3793L16.9214 13.9447L18.4243 14.6802C18.6453 14.7883 18.7864 15.0197 18.7864 15.2741C18.7864 15.5285 18.6453 15.76 18.4243 15.8681L16.9214 16.6035L16.2154 18.169C16.1116 18.3993 15.8894 18.5463 15.6452 18.5463C15.401 18.5463 15.1788 18.3993 15.075 18.169L14.369 16.6035L12.8661 15.8681C12.645 15.76 12.5039 15.5285 12.5039 15.2741C12.5039 15.0197 12.645 14.7883 12.8661 14.6802L14.369 13.9447L15.075 12.3793C15.1788 12.149 15.401 12.002 15.6452 12.002ZM15.6452 14.2017L15.4127 14.7171C15.3503 14.8556 15.2434 14.967 15.1104 15.032L14.6157 15.2741L15.1104 15.5162C15.2434 15.5812 15.3503 15.6927 15.4127 15.8311L15.6452 16.3465L15.8776 15.8311C15.94 15.6927 16.047 15.5812 16.1799 15.5162L16.6747 15.2741L16.1799 15.032C16.047 14.967 15.94 14.8556 15.8776 14.7171L15.6452 14.2017Z" fill="white"/>
</svg>
