<svg width="50" height="50" viewBox="0 0 50 50" fill="none" xmlns="http://www.w3.org/2000/svg">
<path d="M25.0882 45.312C25.0254 45.312 24.9626 45.3078 24.9002 45.2995C24.3982 45.2328 12.5443 43.5933 7.63826 36.3412C4.43826 31.6995 4.21628 24.5683 9.37028 20.6891C10.6783 19.7271 12.1858 19.1004 13.7703 18.8599C15.0442 18.7287 16.3303 18.8894 17.5383 19.3308C18.2699 18.2308 19.2261 17.3131 20.3382 16.6433C21.7602 15.8766 23.3372 15.4738 24.9382 15.4683C31.2922 15.4683 35.0922 21.4099 35.0962 27.1495C35.0502 36.1474 26.4582 44.537 26.0962 44.8891C25.823 45.1568 25.4632 45.3076 25.0882 45.312ZM14.6303 21.9203C14.4878 21.9203 14.3455 21.9301 14.2043 21.9495C13.0909 22.1176 12.0315 22.5574 11.1123 23.2328C7.35226 26.062 7.77226 31.1662 10.0843 34.5308C13.6183 39.7537 22.0842 41.6349 24.5742 42.0849C26.3322 40.2203 32.0742 33.6412 32.1102 27.1453C32.1102 22.9974 29.5962 18.5933 24.9542 18.5912C23.8314 18.5987 22.7262 18.8843 21.7302 19.4245C20.7634 20.1229 19.9495 21.0268 19.3423 22.0766C19.1564 22.3524 18.8895 22.5578 18.5818 22.662C18.2741 22.7662 17.9422 22.7633 17.6363 22.6537C16.6729 22.2522 15.6567 22.0049 14.6223 21.9203H14.6303Z" fill="black"/>
<path d="M33.5848 29.3917C33.2402 29.3912 32.906 29.2671 32.6386 29.0404C32.3714 28.8135 32.187 28.4979 32.1166 28.1465C32.0462 27.7948 32.0942 27.4287 32.2522 27.1096C32.4104 26.7904 32.669 26.5377 32.9848 26.3937C35.3598 25.4658 37.4448 23.8769 39.0128 21.8C39.583 21.0919 40.0128 20.2728 40.277 19.3904C40.5414 18.508 40.635 17.5798 40.5526 16.6595C40.4702 15.7391 40.2134 14.845 39.797 14.0287C39.3806 13.2125 38.813 12.4904 38.1268 11.9042C37.3276 11.3245 36.4064 10.953 35.4408 10.8208C34.4142 10.794 33.3944 11.0017 32.4528 11.4292C32.1468 11.5352 31.816 11.5362 31.5092 11.432C31.2026 11.3277 30.936 11.1237 30.7488 10.85C30.2212 9.93233 29.5138 9.14081 28.6728 8.52708C27.792 8.06129 26.8188 7.81658 25.8308 7.8125C24.9496 7.87383 24.0888 8.11698 23.2986 8.52779C22.5084 8.9386 21.8044 9.50888 21.2276 10.2055C20.6506 10.9022 20.2124 11.7113 19.9384 12.5859C19.6643 13.4604 19.5597 14.383 19.6309 15.3C19.6717 16.6933 19.9374 18.0695 20.4168 19.3708C20.5542 19.7598 20.5376 20.1897 20.3708 20.566C20.2038 20.9423 19.9003 21.234 19.5269 21.3771C19.1534 21.5202 18.7407 21.5029 18.3795 21.329C18.0183 21.1552 17.7382 20.839 17.6009 20.45C17.0023 18.8102 16.6744 17.0767 16.6309 15.3229C16.6309 10.1042 20.0808 4.7125 25.8528 4.6875C27.314 4.69542 28.7528 5.06154 30.0528 5.75625C31.0372 6.34421 31.8868 7.14825 32.5428 8.11252C33.6134 7.72992 34.7518 7.59831 35.8768 7.7271C37.3172 7.931 38.6894 8.49337 39.8768 9.36667C41.8962 11.0376 43.1972 13.4742 43.4948 16.1426C43.7924 18.8109 43.0624 21.4933 41.4648 23.6021C39.5834 26.1523 37.062 28.1112 34.1788 29.2625C33.9914 29.3473 33.7892 29.3912 33.5848 29.3917Z" fill="black"/>
</svg>
