<svg width="20" height="20" viewBox="0 0 20 20" fill="none" xmlns="http://www.w3.org/2000/svg">
<mask id="mask0_15399_5856" style="mask-type:luminance" maskUnits="userSpaceOnUse" x="3" y="12" width="14" height="7">
<path fill-rule="evenodd" clip-rule="evenodd" d="M3.33331 12.0801H16.5332V18.2251H3.33331V12.0801Z" fill="white"/>
</mask>
<g mask="url(#mask0_15399_5856)">
<path fill-rule="evenodd" clip-rule="evenodd" d="M9.93405 13.3301C6.38322 13.3301 4.58322 13.9401 4.58322 15.1442C4.58322 16.3592 6.38322 16.9751 9.93405 16.9751C13.4841 16.9751 15.2832 16.3651 15.2832 15.1609C15.2832 13.9459 13.4841 13.3301 9.93405 13.3301ZM9.93405 18.2251C8.30155 18.2251 3.33322 18.2251 3.33322 15.1442C3.33322 12.3976 7.10072 12.0801 9.93405 12.0801C11.5666 12.0801 16.5332 12.0801 16.5332 15.1609C16.5332 17.9076 12.7666 18.2251 9.93405 18.2251Z" fill="#20211B"/>
</g>
<mask id="mask1_15399_5856" style="mask-type:luminance" maskUnits="userSpaceOnUse" x="5" y="1" width="10" height="10">
<path fill-rule="evenodd" clip-rule="evenodd" d="M5.50821 1.66602H14.3582V10.5148H5.50821V1.66602Z" fill="white"/>
</mask>
<g mask="url(#mask1_15399_5856)">
<path fill-rule="evenodd" clip-rule="evenodd" d="M9.93406 2.85596C8.14989 2.85596 6.69822 4.30679 6.69822 6.09096C6.69239 7.86929 8.13322 9.31929 9.90989 9.32596L9.93406 9.92096V9.32596C11.7174 9.32596 13.1682 7.87429 13.1682 6.09096C13.1682 4.30679 11.7174 2.85596 9.93406 2.85596ZM9.93407 10.5152H9.9074C7.4724 10.5077 5.4999 8.52185 5.50824 6.08852C5.50824 3.65102 7.49324 1.66602 9.93407 1.66602C12.3741 1.66602 14.3582 3.65102 14.3582 6.09102C14.3582 8.53102 12.3741 10.5152 9.93407 10.5152Z" fill="#20211B"/>
</g>
</svg>
