<svg width="14" height="14" viewBox="0 0 14 14" fill="none" xmlns="http://www.w3.org/2000/svg">
<path fill-rule="evenodd" clip-rule="evenodd" d="M12.0555 5.77759H1.65814C1.41664 5.77759 1.22064 5.58159 1.22064 5.34009C1.22064 5.09859 1.41664 4.90259 1.65814 4.90259H12.0555C12.297 4.90259 12.493 5.09859 12.493 5.34009C12.493 5.58159 12.297 5.77759 12.0555 5.77759Z" fill="#545D51"/>
<path fill-rule="evenodd" clip-rule="evenodd" d="M9.4507 8.05566C9.2092 8.05566 9.01086 7.85966 9.01086 7.61816C9.01086 7.37666 9.20395 7.18066 9.44545 7.18066H9.4507C9.6922 7.18066 9.8882 7.37666 9.8882 7.61816C9.8882 7.85966 9.6922 8.05566 9.4507 8.05566Z" fill="#545D51"/>
<path fill-rule="evenodd" clip-rule="evenodd" d="M6.8622 8.05566C6.6207 8.05566 6.42236 7.85966 6.42236 7.61816C6.42236 7.37666 6.61545 7.18066 6.85695 7.18066H6.8622C7.1037 7.18066 7.2997 7.37666 7.2997 7.61816C7.2997 7.85966 7.1037 8.05566 6.8622 8.05566Z" fill="#545D51"/>
<path fill-rule="evenodd" clip-rule="evenodd" d="M4.26824 8.05566C4.02674 8.05566 3.82782 7.85966 3.82782 7.61816C3.82782 7.37666 4.02149 7.18066 4.26299 7.18066H4.26824C4.50974 7.18066 4.70574 7.37666 4.70574 7.61816C4.70574 7.85966 4.50974 8.05566 4.26824 8.05566Z" fill="#545D51"/>
<path fill-rule="evenodd" clip-rule="evenodd" d="M9.4507 10.3229C9.2092 10.3229 9.01086 10.1269 9.01086 9.88538C9.01086 9.64388 9.20395 9.44788 9.44545 9.44788H9.4507C9.6922 9.44788 9.8882 9.64388 9.8882 9.88538C9.8882 10.1269 9.6922 10.3229 9.4507 10.3229Z" fill="#545D51"/>
<path fill-rule="evenodd" clip-rule="evenodd" d="M6.8622 10.3229C6.6207 10.3229 6.42236 10.1269 6.42236 9.88538C6.42236 9.64388 6.61545 9.44788 6.85695 9.44788H6.8622C7.1037 9.44788 7.2997 9.64388 7.2997 9.88538C7.2997 10.1269 7.1037 10.3229 6.8622 10.3229Z" fill="#545D51"/>
<path fill-rule="evenodd" clip-rule="evenodd" d="M4.26824 10.3229C4.02674 10.3229 3.82782 10.1269 3.82782 9.88538C3.82782 9.64388 4.02149 9.44788 4.26299 9.44788H4.26824C4.50974 9.44788 4.70574 9.64388 4.70574 9.88538C4.70574 10.1269 4.50974 10.3229 4.26824 10.3229Z" fill="#545D51"/>
<path fill-rule="evenodd" clip-rule="evenodd" d="M9.21289 3.37812C8.97139 3.37812 8.77539 3.18212 8.77539 2.94062V1.02087C8.77539 0.779374 8.97139 0.583374 9.21289 0.583374C9.45439 0.583374 9.65039 0.779374 9.65039 1.02087V2.94062C9.65039 3.18212 9.45439 3.37812 9.21289 3.37812Z" fill="#545D51"/>
<path fill-rule="evenodd" clip-rule="evenodd" d="M4.50061 3.37812C4.25911 3.37812 4.06311 3.18212 4.06311 2.94062V1.02087C4.06311 0.779374 4.25911 0.583374 4.50061 0.583374C4.74211 0.583374 4.93811 0.779374 4.93811 1.02087V2.94062C4.93811 3.18212 4.74211 3.37812 4.50061 3.37812Z" fill="#545D51"/>
<mask id="mask0_15358_11961" style="mask-type:luminance" maskUnits="userSpaceOnUse" x="1" y="1" width="12" height="13">
<path fill-rule="evenodd" clip-rule="evenodd" d="M1.16669 1.50452H12.5417V13.125H1.16669V1.50452Z" fill="white"/>
</mask>
<g mask="url(#mask0_15358_11961)">
<path fill-rule="evenodd" clip-rule="evenodd" d="M4.38727 2.37952C2.87469 2.37952 2.04169 3.18627 2.04169 4.65102V9.9296C2.04169 11.4264 2.87469 12.2501 4.38727 12.2501H9.3211C10.8337 12.2501 11.6667 11.4416 11.6667 9.97393V4.65102C11.669 3.9306 11.4754 3.3706 11.0909 2.9856C10.6954 2.58893 10.0859 2.37952 9.32635 2.37952H4.38727ZM9.3211 13.1251H4.38727C2.40102 13.1251 1.16669 11.9007 1.16669 9.9296V4.65102C1.16669 2.70968 2.40102 1.50452 4.38727 1.50452H9.32635C10.3233 1.50452 11.1475 1.80318 11.7104 2.36727C12.257 2.91618 12.5446 3.70543 12.5417 4.65218V9.97393C12.5417 11.9176 11.3074 13.1251 9.3211 13.1251Z" fill="#545D51"/>
</g>
</svg>
