<svg width="20" height="20" viewBox="0 0 20 20" fill="none" xmlns="http://www.w3.org/2000/svg">
<path d="M16.2538 17.5166C16.2231 17.6554 16.1459 17.7796 16.0352 17.8687C15.9244 17.9578 15.7865 18.0064 15.6444 18.0066C15.5987 18.0069 15.5532 18.0018 15.5088 17.9916C14.557 17.7357 13.6888 17.2354 12.99 16.5404C12.157 17.2349 11.1775 17.7317 10.125 17.9935C10.0826 18.0021 10.0395 18.0065 9.99626 18.0066C9.8423 18.0053 9.69423 17.9473 9.58046 17.8435C9.46668 17.7398 9.39519 17.5977 9.3797 17.4445C9.36421 17.2914 9.40581 17.1378 9.49652 17.0134C9.58723 16.889 9.72067 16.8025 9.87126 16.7704C10.696 16.558 11.4641 16.1672 12.1213 15.6254C11.6726 15.0994 11.2795 14.5284 10.9481 13.9216C10.9087 13.8484 10.8844 13.7681 10.8764 13.6853C10.8685 13.6025 10.8771 13.519 10.9019 13.4396C10.9266 13.3602 10.9669 13.2866 11.0205 13.2229C11.0741 13.1593 11.1398 13.1071 11.2138 13.0692C11.2878 13.0313 11.3687 13.0086 11.4516 13.0023C11.5345 12.9961 11.6178 13.0064 11.6967 13.0328C11.7756 13.0592 11.8484 13.101 11.9109 13.1558C11.9734 13.2107 12.0243 13.2775 12.0606 13.3523C12.3412 13.8662 12.6738 14.35 13.0531 14.796C13.7524 14.0966 14.3264 13.2822 14.75 12.3885H9.99376C9.828 12.3885 9.66903 12.3227 9.55182 12.2055C9.43461 12.0882 9.36876 11.9293 9.36876 11.7635C9.36876 11.5978 9.43461 11.4388 9.55182 11.3216C9.66903 11.2044 9.828 11.1385 9.99376 11.1385H12.1938V10.356C12.1938 10.1903 12.2596 10.0313 12.3768 9.91407C12.494 9.79686 12.653 9.73102 12.8188 9.73102C12.9845 9.73102 13.1435 9.79686 13.2607 9.91407C13.3779 10.0313 13.4438 10.1903 13.4438 10.356V11.1385H15.6438C15.7402 11.138 15.8354 11.1598 15.9221 11.2022C16.0087 11.2446 16.0843 11.3065 16.143 11.383C16.2017 11.4595 16.2419 11.5486 16.2605 11.6432C16.2791 11.7378 16.2755 11.8355 16.25 11.9285C15.801 13.36 15.0023 14.6569 13.9263 15.7023C14.4459 16.2083 15.0841 16.576 15.7825 16.7716C15.9436 16.8083 16.0835 16.9073 16.1718 17.0469C16.2602 17.1865 16.2896 17.3554 16.2538 17.5166ZM9.36876 9.74477H6.27876C5.60995 9.73429 4.97207 9.46125 4.50281 8.98459C4.03355 8.50792 3.77054 7.86585 3.77054 7.19695C3.77054 6.52806 4.03355 5.88599 4.50281 5.40932C4.97207 4.93265 5.60995 4.65962 6.27876 4.64914H9.36876V4.49414C9.36876 4.16262 9.23706 3.84468 9.00264 3.61026C8.76822 3.37584 8.45028 3.24414 8.11876 3.24414H4.98126C4.8155 3.24414 4.65653 3.17829 4.53932 3.06108C4.42211 2.94387 4.35626 2.7849 4.35626 2.61914C4.35626 2.45338 4.42211 2.29441 4.53932 2.1772C4.65653 2.05999 4.8155 1.99414 4.98126 1.99414H8.11876C8.7818 1.99414 9.41768 2.25753 9.88652 2.72637C10.3554 3.19521 10.6188 3.8311 10.6188 4.49414V9.75914C10.6188 9.9249 10.5529 10.0839 10.4357 10.2011C10.3185 10.3183 10.1595 10.3841 9.99376 10.3841C9.828 10.3841 9.66903 10.3183 9.55182 10.2011C9.43461 10.0839 9.36876 9.9249 9.36876 9.75914V9.74477ZM9.36876 8.49477V5.89914H6.27876C5.93949 5.90659 5.61662 6.04659 5.37931 6.28917C5.142 6.53174 5.00911 6.8576 5.00911 7.19695C5.00911 7.5363 5.142 7.86216 5.37931 8.10474C5.61662 8.34732 5.93949 8.48732 6.27876 8.49477H9.36876Z" fill="#20211B"/>
</svg>
