<svg width="50" height="50" viewBox="0 0 50 50" fill="none" xmlns="http://www.w3.org/2000/svg">
<path d="M6.50134 45.1149H6.4353C6.2387 45.1062 6.04566 45.0574 5.86718 44.9712C5.6887 44.8847 5.5283 44.7626 5.39514 44.6118C5.26198 44.461 5.15864 44.2841 5.09106 44.0916C5.02348 43.8991 4.99302 43.6947 5.00134 43.4899C5.15822 41.4416 5.49976 39.4133 6.02136 37.4316C6.0263 37.177 6.09014 36.9276 6.2074 36.7045C8.02626 29.8455 11.4312 23.5555 16.1241 18.3847C20.8172 13.214 26.6552 9.32019 33.1274 7.04398C37.3174 5.87523 42.1652 4.96065 43.6392 7.87732C44.8732 10.3273 42.9594 14.1127 37.4394 20.1544C33.8014 24.1274 29.9794 27.5355 29.8194 27.6772C29.586 27.8851 29.297 28.0133 28.9914 28.0441L21.4834 28.8126L23.7714 30.6878C23.9534 30.8389 24.0992 31.0322 24.1972 31.2522C24.2954 31.4722 24.343 31.713 24.3364 31.9553C24.3298 32.1978 24.2692 32.4353 24.1592 32.6493C24.0494 32.8633 23.8934 33.0474 23.7034 33.1878C19.3377 36.5937 14.1175 38.6076 8.67528 38.9858C8.3306 40.5028 8.1066 42.0468 8.00536 43.6022C7.99238 44.0085 7.82808 44.3935 7.54736 44.6758C7.26664 44.9583 6.89152 45.1155 6.50134 45.1149ZM39.5014 9.04813C37.6484 9.13346 35.8128 9.45961 34.0374 10.019C18.0753 16.1502 11.8893 27.9503 9.49732 35.8149C13.3424 35.3776 17.0353 34.007 20.2792 31.8126L16.7013 28.8524C16.4672 28.6591 16.294 28.3972 16.2036 28.1005C16.1133 27.8041 16.11 27.486 16.1942 27.1874C16.2784 26.8889 16.4464 26.6235 16.6764 26.4249C16.9064 26.2264 17.1881 26.1039 17.4853 26.0733L28.2194 24.9751C36.3034 17.7211 41.6194 10.7648 40.9834 9.32109C40.9834 9.32942 40.7014 9.04813 39.5014 9.04813Z" fill="black"/>
<path d="M37.5542 45.1129C35.8076 45.1509 34.0712 44.8265 32.4462 44.1588C29.8074 43.1311 26.901 43.1311 24.2622 44.1588C22.6376 44.8261 20.9022 45.1504 19.1562 45.1129C18.7584 45.1129 18.3769 44.9484 18.0956 44.6552C17.8143 44.3623 17.6562 43.9648 17.6562 43.5504C17.6562 43.1361 17.8143 42.7386 18.0956 42.4456C18.3769 42.1525 18.7584 41.9879 19.1562 41.9879C20.5558 42.0261 21.9478 41.7644 23.2462 41.2192C26.5408 39.9442 30.1656 39.9442 33.4602 41.2192C34.76 41.7642 36.1534 42.0259 37.5542 41.9879C37.952 41.9879 38.3336 42.1525 38.6148 42.4456C38.8962 42.7386 39.0542 43.1361 39.0542 43.5504C39.0542 43.9648 38.8962 44.3623 38.6148 44.6552C38.3336 44.9484 37.952 45.1129 37.5542 45.1129Z" fill="black"/>
</svg>
