<svg width="14" height="14" viewBox="0 0 14 14" fill="none" xmlns="http://www.w3.org/2000/svg">
<path fill-rule="evenodd" clip-rule="evenodd" d="M7.1462 4.95825C6.58328 4.95825 6.12537 5.41617 6.12537 5.97967C6.12537 6.54259 6.58328 6.99992 7.1462 6.99992C7.70912 6.99992 8.16703 6.54259 8.16703 5.97967C8.16703 5.41617 7.70912 4.95825 7.1462 4.95825ZM7.1462 7.87492C6.10087 7.87492 5.25037 7.025 5.25037 5.97967C5.25037 4.93375 6.10087 4.08325 7.1462 4.08325C8.19153 4.08325 9.04203 4.93375 9.04203 5.97967C9.04203 7.025 8.19153 7.87492 7.1462 7.87492Z" fill="#808080"/>
<mask id="mask0_15358_11889" style="mask-type:luminance" maskUnits="userSpaceOnUse" x="2" y="1" width="10" height="12">
<path fill-rule="evenodd" clip-rule="evenodd" d="M2.33337 1.16663H11.9581V12.5416H2.33337V1.16663Z" fill="white"/>
</mask>
<g mask="url(#mask0_15358_11889)">
<path fill-rule="evenodd" clip-rule="evenodd" d="M7.14563 2.04163C4.97446 2.04163 3.20813 3.82488 3.20813 6.01588C3.20813 8.80363 6.4888 11.5196 7.14563 11.6643C7.80246 11.519 11.0831 8.80304 11.0831 6.01588C11.0831 3.82488 9.3168 2.04163 7.14563 2.04163ZM7.14563 12.5416C6.09913 12.5416 2.33313 9.30296 2.33313 6.01588C2.33313 3.34188 4.49205 1.16663 7.14563 1.16663C9.79921 1.16663 11.9581 3.34188 11.9581 6.01588C11.9581 9.30296 8.19213 12.5416 7.14563 12.5416Z" fill="#808080"/>
</g>
</svg>
