<svg width="20" height="20" viewBox="0 0 20 20" fill="none" xmlns="http://www.w3.org/2000/svg">
<g clip-path="url(#clip0_15357_10341)">
<path fill-rule="evenodd" clip-rule="evenodd" d="M4.0933 0H15.9066C18.1579 0 19.9999 1.842 19.9999 4.0933V15.9066C19.9999 18.1579 18.1579 19.9999 15.9066 19.9999H4.0933C1.842 20 0 18.158 0 15.9066V4.0933C0 1.842 1.842 0 4.0933 0Z" fill="#3ACE01"/>
<path fill-rule="evenodd" clip-rule="evenodd" d="M9.98056 3.31299C14.033 3.31299 17.3181 5.94357 17.3181 9.18856C17.3181 10.322 16.917 11.3803 16.2227 12.2778C16.1883 12.3289 16.1434 12.3854 16.0868 12.4477L16.0825 12.4524C15.8453 12.7362 15.5782 13.0026 15.2846 13.2485C13.2555 15.124 9.9156 17.3569 9.47479 17.0124C9.09159 16.713 10.1059 15.2483 8.93567 15.0046C8.85403 14.9952 8.77261 14.9851 8.69187 14.9737L8.69033 14.9736V14.9735C5.25322 14.4852 2.64307 12.081 2.64307 9.18856C2.64296 5.94357 5.92813 3.31299 9.98056 3.31299Z" fill="white"/>
<path fill-rule="evenodd" clip-rule="evenodd" d="M5.72325 11.0627H7.20311C7.41362 11.0627 7.58579 10.8904 7.58579 10.6799V10.648C7.58579 10.4375 7.41362 10.2653 7.20311 10.2653H6.13785V7.84166C6.13785 7.63116 5.96568 7.45898 5.75517 7.45898H5.72325C5.51275 7.45898 5.34058 7.63116 5.34058 7.84166V10.6799C5.34058 10.8904 5.51275 11.0627 5.72325 11.0627ZM14.8933 9.28362V9.25169C14.8933 9.04119 14.721 8.86902 14.5105 8.86902H13.4453V8.26308H14.5105C14.721 8.26308 14.8933 8.09091 14.8933 7.88041V7.84849C14.8933 7.63799 14.721 7.46581 14.5105 7.46581H13.0307C12.8202 7.46581 12.648 7.63799 12.648 7.84849V10.6867C12.648 10.8972 12.8202 11.0694 13.0307 11.0694H14.5105C14.721 11.0694 14.8933 10.8972 14.8933 10.6867V10.6548C14.8933 10.4443 14.721 10.2721 14.5105 10.2721H13.4453V9.66618H14.5105C14.721 9.66629 14.8933 9.49406 14.8933 9.28362ZM12.0473 10.9486L12.0474 10.9484C12.1182 10.877 12.158 10.7805 12.1581 10.68V7.84176C12.1581 7.63126 11.9859 7.45909 11.7753 7.45909H11.7434C11.5329 7.45909 11.3607 7.63126 11.3607 7.84176V9.50783L9.97754 7.6526C9.91147 7.53723 9.78706 7.45909 9.64527 7.45909H9.61335C9.40285 7.45909 9.23062 7.63126 9.23062 7.84176V10.68C9.23062 10.8905 9.40279 11.0627 9.61335 11.0627H9.64527C9.85578 11.0627 10.0279 10.8905 10.0279 10.68V8.98274L11.4211 10.8856C11.4297 10.8989 11.439 10.9117 11.4492 10.9239L11.4492 10.924C11.4875 10.9762 11.5398 11.012 11.5982 11.0339C11.643 11.0524 11.6921 11.0627 11.7434 11.0627H11.7753C11.8376 11.0627 11.8991 11.0474 11.9541 11.018C11.9923 10.9998 12.0246 10.9763 12.0473 10.9486ZM8.27733 11.0627H8.30925C8.51976 11.0627 8.69193 10.8904 8.69193 10.6799V7.84171C8.69193 7.63121 8.51976 7.45904 8.30925 7.45904H8.27733C8.06683 7.45904 7.8946 7.63121 7.8946 7.84171V10.6799C7.8946 10.8904 8.06683 11.0627 8.27733 11.0627Z" fill="#3ACE01"/>
</g>
<defs>
<clipPath id="clip0_15357_10341">
<rect width="20" height="20" fill="white"/>
</clipPath>
</defs>
</svg>
