<svg width="24" height="24" viewBox="0 0 24 24" fill="none" xmlns="http://www.w3.org/2000/svg">
<path d="M9.18352 21.3097V18.1646C9.18352 17.3618 9.87363 16.7109 10.7249 16.7109H13.8368C14.2456 16.7109 14.6377 16.8641 14.9267 17.1367C15.2158 17.4093 15.3782 17.7791 15.3782 18.1646V21.3097C15.3756 21.6435 15.5144 21.9644 15.7638 22.2013C16.0131 22.4382 16.3524 22.5714 16.7063 22.5714H18.8294C19.821 22.5738 20.7728 22.2041 21.4748 21.5437C22.1769 20.8833 22.5714 19.9866 22.5714 19.0515V10.0916C22.5714 9.33624 22.2164 8.61972 21.602 8.13508L14.3797 2.69518C13.1234 1.74138 11.3233 1.77217 10.1045 2.76832L3.04699 8.13508C2.40357 8.60543 2.019 9.32408 2 10.0916V19.0423C2 20.9914 3.67536 22.5714 5.74202 22.5714H7.81661C8.5517 22.5714 9.14911 22.0121 9.15444 21.3189L9.18352 21.3097Z" fill="white"/>
</svg>
