<svg width="20" height="20" viewBox="0 0 20 20" fill="none" xmlns="http://www.w3.org/2000/svg">
<path d="M16.875 1.875H9.375C8.87789 1.87555 8.40129 2.07327 8.04978 2.42478C7.69827 2.77629 7.50055 3.25289 7.5 3.75V9.375C7.50376 9.40631 7.51003 9.43726 7.51875 9.46756L5.31681 9.83463C4.87848 9.90639 4.48005 10.1319 4.19293 10.4708C3.90581 10.8097 3.74878 11.2398 3.75 11.6839V17.5H1.875C1.70924 17.5 1.55027 17.5658 1.43306 17.6831C1.31585 17.8003 1.25 17.9592 1.25 18.125C1.25 18.2908 1.31585 18.4497 1.43306 18.5669C1.55027 18.6842 1.70924 18.75 1.875 18.75H16.875C17.3721 18.7495 17.8487 18.5517 18.2002 18.2002C18.5517 17.8487 18.7495 17.3721 18.75 16.875V3.75C18.7495 3.25289 18.5517 2.77629 18.2002 2.42478C17.8487 2.07327 17.3721 1.87555 16.875 1.875ZM5 11.6839C4.99962 11.536 5.05192 11.3927 5.14754 11.2797C5.24316 11.1668 5.37586 11.0915 5.52187 11.0675L10.5219 10.2341C10.6114 10.2191 10.7032 10.2238 10.7907 10.2479C10.8783 10.2719 10.9595 10.3148 11.0288 10.3735C11.0981 10.4322 11.1538 10.5052 11.192 10.5876C11.2302 10.67 11.25 10.7597 11.25 10.8505V17.5H8.75V15.625C8.75 15.4592 8.68415 15.3003 8.56694 15.1831C8.44973 15.0658 8.29076 15 8.125 15C7.95924 15 7.80027 15.0658 7.68306 15.1831C7.56585 15.3003 7.5 15.4592 7.5 15.625V17.5H5V11.6839ZM17.5 16.875C17.4999 17.0407 17.434 17.1996 17.3168 17.3168C17.1996 17.434 17.0407 17.4999 16.875 17.5H12.5V10.8505C12.5 10.5782 12.4406 10.3092 12.3261 10.0621C12.2116 9.81509 12.0447 9.59595 11.8369 9.41996C11.6291 9.24396 11.3855 9.11533 11.123 9.04301C10.8605 8.9707 10.5853 8.95642 10.3167 9.00119L8.75 9.2625V3.75C8.75015 3.58429 8.81604 3.4254 8.93322 3.30822C9.0504 3.19104 9.20929 3.12515 9.375 3.125H16.875C17.0407 3.12515 17.1996 3.19104 17.3168 3.30822C17.434 3.4254 17.4999 3.58429 17.5 3.75V16.875Z" fill="#20211B"/>
<path d="M10.9375 4.375H10.3125C10.1399 4.375 10 4.51491 10 4.6875V5.3125C10 5.48509 10.1399 5.625 10.3125 5.625H10.9375C11.1101 5.625 11.25 5.48509 11.25 5.3125V4.6875C11.25 4.51491 11.1101 4.375 10.9375 4.375Z" fill="#20211B"/>
<path d="M13.4375 4.375H12.8125C12.6399 4.375 12.5 4.51491 12.5 4.6875V5.3125C12.5 5.48509 12.6399 5.625 12.8125 5.625H13.4375C13.6101 5.625 13.75 5.48509 13.75 5.3125V4.6875C13.75 4.51491 13.6101 4.375 13.4375 4.375Z" fill="#20211B"/>
<path d="M15.9375 4.375H15.3125C15.1399 4.375 15 4.51491 15 4.6875V5.3125C15 5.48509 15.1399 5.625 15.3125 5.625H15.9375C16.1101 5.625 16.25 5.48509 16.25 5.3125V4.6875C16.25 4.51491 16.1101 4.375 15.9375 4.375Z" fill="#20211B"/>
<path d="M13.4375 6.875H12.8125C12.6399 6.875 12.5 7.01491 12.5 7.1875V7.8125C12.5 7.98509 12.6399 8.125 12.8125 8.125H13.4375C13.6101 8.125 13.75 7.98509 13.75 7.8125V7.1875C13.75 7.01491 13.6101 6.875 13.4375 6.875Z" fill="#20211B"/>
</svg>
