<svg width="14" height="14" viewBox="0 0 14 14" fill="none" xmlns="http://www.w3.org/2000/svg">
<path fill-rule="evenodd" clip-rule="evenodd" d="M12.7685 9.27243H10.4071C9.30054 9.27243 8.39988 8.37235 8.39929 7.26635C8.39929 6.15918 9.29996 5.25852 10.4071 5.25793H12.7685C13.01 5.25793 13.206 5.45393 13.206 5.69543C13.206 5.93693 13.01 6.13293 12.7685 6.13293H10.4071C9.78238 6.13352 9.27429 6.6416 9.27429 7.26577C9.27429 7.88935 9.78296 8.39743 10.4071 8.39743H12.7685C13.01 8.39743 13.206 8.59343 13.206 8.83493C13.206 9.07643 13.01 9.27243 12.7685 9.27243Z" fill="#545D51"/>
<path fill-rule="evenodd" clip-rule="evenodd" d="M10.674 7.66711H10.492C10.2505 7.66711 10.0545 7.47111 10.0545 7.22961C10.0545 6.98811 10.2505 6.79211 10.492 6.79211H10.674C10.9155 6.79211 11.1115 6.98811 11.1115 7.22961C11.1115 7.47111 10.9155 7.66711 10.674 7.66711Z" fill="#545D51"/>
<mask id="mask0_15358_11967" style="mask-type:luminance" maskUnits="userSpaceOnUse" x="1" y="1" width="13" height="12">
<path fill-rule="evenodd" clip-rule="evenodd" d="M1.16669 1.75H13.2059V12.9342H1.16669V1.75Z" fill="white"/>
</mask>
<g mask="url(#mask0_15358_11967)">
<path fill-rule="evenodd" clip-rule="evenodd" d="M4.66528 2.625C3.21861 2.625 2.04144 3.80217 2.04144 5.24883V9.43542C2.04144 10.8821 3.21861 12.0592 4.66528 12.0592H9.70761C11.1543 12.0592 12.3309 10.8821 12.3309 9.43542V5.24883C12.3309 3.80217 11.1543 2.625 9.70761 2.625H4.66528ZM9.70761 12.9342H4.66528C2.73619 12.9342 1.16644 11.3645 1.16644 9.43542V5.24883C1.16644 3.31917 2.73619 1.75 4.66528 1.75H9.70761C11.6367 1.75 13.2059 3.31917 13.2059 5.24883V9.43542C13.2059 11.3645 11.6367 12.9342 9.70761 12.9342Z" fill="#545D51"/>
</g>
<path fill-rule="evenodd" clip-rule="evenodd" d="M7.39936 5.27222H4.24994C4.00844 5.27222 3.81244 5.07622 3.81244 4.83472C3.81244 4.59322 4.00844 4.39722 4.24994 4.39722H7.39936C7.64086 4.39722 7.83686 4.59322 7.83686 4.83472C7.83686 5.07622 7.64086 5.27222 7.39936 5.27222Z" fill="#545D51"/>
</svg>
