<svg width="14" height="14" viewBox="0 0 14 14" fill="none" xmlns="http://www.w3.org/2000/svg">
<path fill-rule="evenodd" clip-rule="evenodd" d="M7.00002 2.04163C4.26594 2.04163 2.04169 4.26588 2.04169 6.99996C2.04169 9.73404 4.26594 11.9583 7.00002 11.9583C9.7341 11.9583 11.9584 9.73404 11.9584 6.99996C11.9584 4.26588 9.7341 2.04163 7.00002 2.04163ZM7.00002 12.8333C3.78352 12.8333 1.16669 10.2165 1.16669 6.99996C1.16669 3.78346 3.78352 1.16663 7.00002 1.16663C10.2165 1.16663 12.8334 3.78346 12.8334 6.99996C12.8334 10.2165 10.2165 12.8333 7.00002 12.8333Z" fill="#545D51"/>
<path fill-rule="evenodd" clip-rule="evenodd" d="M9.00153 9.15408C8.92512 9.15408 8.84812 9.13424 8.77753 9.09283L6.57837 7.78091C6.44653 7.70158 6.36487 7.55866 6.36487 7.40466V4.57666C6.36487 4.33516 6.56087 4.13916 6.80237 4.13916C7.04445 4.13916 7.23987 4.33516 7.23987 4.57666V7.15616L9.22612 8.34033C9.4332 8.46458 9.50145 8.73291 9.37778 8.94058C9.29553 9.07766 9.15028 9.15408 9.00153 9.15408Z" fill="#545D51"/>
</svg>
