<svg width="20" height="20" viewBox="0 0 20 20" fill="none" xmlns="http://www.w3.org/2000/svg">
<mask id="mask0_15399_5866" style="mask-type:luminance" maskUnits="userSpaceOnUse" x="2" y="0" width="16" height="16">
<path fill-rule="evenodd" clip-rule="evenodd" d="M2.50006 0.833008H17.9142V15.2897H2.50006V0.833008Z" fill="white"/>
</mask>
<g mask="url(#mask0_15399_5866)">
<path fill-rule="evenodd" clip-rule="evenodd" d="M10.2059 2.08301C7.29341 2.08301 5.26341 4.36467 5.26341 6.41217C5.26341 8.14467 4.78257 8.94551 4.35757 9.65217C4.01674 10.2197 3.74757 10.668 3.74757 11.6422C3.88674 13.2138 4.92424 14.0397 10.2059 14.0397C15.4584 14.0397 16.5284 13.1772 16.6667 11.588C16.6642 10.668 16.3951 10.2197 16.0542 9.65217C15.6292 8.94551 15.1484 8.14467 15.1484 6.41217C15.1484 4.36467 13.1184 2.08301 10.2059 2.08301ZM10.2059 15.2897C6.30924 15.2897 2.78757 15.0147 2.50007 11.6955C2.49757 10.3222 2.91674 9.62384 3.28674 9.00884C3.66091 8.38551 4.01341 7.79801 4.01341 6.41217C4.01341 3.71801 6.50174 0.833008 10.2059 0.833008C13.9101 0.833008 16.3984 3.71801 16.3984 6.41217C16.3984 7.79801 16.7509 8.38551 17.1251 9.00884C17.4951 9.62384 17.9142 10.3222 17.9142 11.6422C17.6234 15.0147 14.1026 15.2897 10.2059 15.2897Z" fill="#20211B"/>
</g>
<path fill-rule="evenodd" clip-rule="evenodd" d="M10.1652 18.7495H10.1636C9.22939 18.7487 8.34523 18.337 7.67439 17.5895C7.44356 17.3337 7.46439 16.9379 7.72106 16.7079C7.97773 16.4762 8.37273 16.497 8.60356 16.7545C9.03523 17.2354 9.58939 17.4995 10.1644 17.4995H10.1652C10.7427 17.4995 11.2994 17.2354 11.7319 16.7537C11.9636 16.4979 12.3586 16.477 12.6144 16.7079C12.8711 16.9387 12.8919 17.3345 12.6611 17.5904C11.9877 18.3379 11.1019 18.7495 10.1652 18.7495Z" fill="#20211B"/>
</svg>
