<svg width="14" height="14" viewBox="0 0 14 14" fill="none" xmlns="http://www.w3.org/2000/svg">
<path fill-rule="evenodd" clip-rule="evenodd" d="M7.93311 4.7665C7.69161 4.7665 7.49561 4.5705 7.49561 4.329V2.91675C7.49561 2.67525 7.69161 2.47925 7.93311 2.47925C8.17461 2.47925 8.37061 2.67525 8.37061 2.91675V4.329C8.37061 4.5705 8.17461 4.7665 7.93311 4.7665Z" fill="#545D51"/>
<path fill-rule="evenodd" clip-rule="evenodd" d="M7.93311 12.4156C7.69161 12.4156 7.49561 12.2196 7.49561 11.9781V10.798C7.49561 10.5559 7.69161 10.3605 7.93311 10.3605C8.17461 10.3605 8.37061 10.5559 8.37061 10.798V11.9781C8.37061 12.2196 8.17461 12.4156 7.93311 12.4156Z" fill="#545D51"/>
<path fill-rule="evenodd" clip-rule="evenodd" d="M7.93311 9.2312C7.69161 9.2312 7.49561 9.0352 7.49561 8.7937V5.98145C7.49561 5.73995 7.69161 5.54395 7.93311 5.54395C8.17461 5.54395 8.37061 5.73995 8.37061 5.98145V8.7937C8.37061 9.0352 8.17461 9.2312 7.93311 9.2312Z" fill="#545D51"/>
<mask id="mask0_15358_11958" style="mask-type:luminance" maskUnits="userSpaceOnUse" x="0" y="2" width="14" height="11">
<path fill-rule="evenodd" clip-rule="evenodd" d="M0.583313 2.33337H13.125V12.5415H0.583313V2.33337Z" fill="white"/>
</mask>
<g mask="url(#mask0_15358_11958)">
<path fill-rule="evenodd" clip-rule="evenodd" d="M1.45831 9.07321V10.2043C1.45831 11.0105 2.12506 11.6667 2.94465 11.6667H10.7636C11.5832 11.6667 12.25 11.0105 12.25 10.2043V9.07321C11.5202 8.88129 10.9801 8.22096 10.9801 7.43812C10.9801 6.65471 11.5196 5.99496 12.25 5.80304L12.2494 4.67079C12.2494 3.86462 11.5826 3.20837 10.7631 3.20837H2.94523C2.12565 3.20837 1.4589 3.86462 1.4589 4.67079L1.45831 5.84796C2.1974 6.02937 2.72823 6.66287 2.72823 7.43812C2.72823 8.22096 2.18806 8.88129 1.45831 9.07321ZM10.7636 12.5417H2.94465C1.64265 12.5417 0.583313 11.4929 0.583313 10.2043V8.69229C0.583313 8.45079 0.779313 8.25479 1.02081 8.25479C1.4799 8.25479 1.85323 7.88846 1.85323 7.43812C1.85323 7.00062 1.49506 6.67046 1.02081 6.67046C0.90473 6.67046 0.793313 6.62437 0.711646 6.54212C0.629396 6.46046 0.583313 6.34846 0.583313 6.23296L0.583896 4.67079C0.583896 3.38221 1.64323 2.33337 2.94523 2.33337H10.7631C12.0651 2.33337 13.1244 3.38221 13.1244 4.67079L13.125 6.18396C13.125 6.29946 13.0789 6.41146 12.9966 6.49312C12.915 6.57537 12.8036 6.62146 12.6875 6.62146C12.2284 6.62146 11.8551 6.98779 11.8551 7.43812C11.8551 7.88846 12.2284 8.25479 12.6875 8.25479C12.929 8.25479 13.125 8.45079 13.125 8.69229V10.2043C13.125 11.4929 12.0656 12.5417 10.7636 12.5417Z" fill="#545D51"/>
</g>
</svg>
