<svg width="50" height="50" viewBox="0 0 50 50" fill="none" xmlns="http://www.w3.org/2000/svg">
<path fill-rule="evenodd" clip-rule="evenodd" d="M25 7.29175C15.2354 7.29175 7.29163 15.2355 7.29163 25.0001C7.29163 34.7647 15.2354 42.7084 25 42.7084C34.7645 42.7084 42.7083 34.7647 42.7083 25.0001C42.7083 15.2355 34.7645 7.29175 25 7.29175ZM25 45.8334C13.5125 45.8334 4.16663 36.4876 4.16663 25.0001C4.16663 13.5126 13.5125 4.16675 25 4.16675C36.4875 4.16675 45.8333 13.5126 45.8333 25.0001C45.8333 36.4876 36.4875 45.8334 25 45.8334Z" fill="black"/>
<path fill-rule="evenodd" clip-rule="evenodd" d="M32.1482 32.6931C31.8753 32.6931 31.6003 32.6223 31.3482 32.4744L23.4941 27.789C23.0232 27.5056 22.7316 26.9952 22.7316 26.4452V16.3452C22.7316 15.4827 23.4316 14.7827 24.2941 14.7827C25.1587 14.7827 25.8566 15.4827 25.8566 16.3452V25.5577L32.9503 29.7869C33.6899 30.2306 33.9337 31.189 33.492 31.9306C33.1982 32.4202 32.6795 32.6931 32.1482 32.6931Z" fill="black"/>
</svg>
