<svg width="24" height="24" viewBox="0 0 24 24" fill="none" xmlns="http://www.w3.org/2000/svg">
<path d="M19.6711 17.312C19.3942 17.9575 19.0521 18.573 18.6501 19.149C18.1131 19.916 17.6721 20.446 17.3341 20.741C16.8091 21.223 16.2451 21.471 15.6421 21.485C15.2101 21.485 14.6881 21.362 14.0801 21.112C13.4701 20.863 12.9101 20.741 12.3971 20.741C11.8601 20.741 11.2841 20.863 10.6671 21.112C10.0511 21.362 9.55312 21.493 9.17212 21.505C8.59512 21.53 8.01812 21.276 7.44312 20.741C7.07612 20.421 6.61712 19.871 6.06612 19.093C5.47612 18.264 4.99112 17.299 4.61112 16.202C4.20412 15.015 4.00012 13.867 4.00012 12.755C4.00012 11.482 4.27512 10.383 4.82612 9.463C5.24287 8.74047 5.83867 8.13743 6.55612 7.712C7.26359 7.28767 8.07121 7.05919 8.89612 7.05C9.35612 7.05 9.95912 7.192 10.7061 7.472C11.4531 7.752 11.9331 7.894 12.1421 7.894C12.3001 7.894 12.8311 7.727 13.7351 7.396C14.5881 7.089 15.3081 6.962 15.8981 7.012C17.4981 7.141 18.6991 7.771 19.4981 8.907C18.0681 9.774 17.3611 10.987 17.3751 12.544C17.3871 13.757 17.8281 14.766 18.6921 15.567C19.0741 15.9325 19.5198 16.225 20.0071 16.43C19.9011 16.737 19.7891 17.03 19.6711 17.312ZM16.0041 2.881C16.0041 3.831 15.6561 4.719 14.9651 5.54C14.1291 6.516 13.1191 7.081 12.0241 6.992C12.0098 6.87254 12.0028 6.75232 12.0031 6.632C12.0031 5.719 12.3991 4.743 13.1061 3.944C13.4581 3.54 13.9061 3.203 14.4491 2.935C14.9911 2.671 15.5031 2.525 15.9851 2.5C15.9981 2.628 16.0041 2.755 16.0041 2.881Z" fill="black"/>
</svg>
