<svg width="24" height="24" viewBox="0 0 24 24" fill="none" xmlns="http://www.w3.org/2000/svg">
<mask id="mask0_15358_11763" style="mask-type:luminance" maskUnits="userSpaceOnUse" x="3" y="0" width="19" height="19">
<path fill-rule="evenodd" clip-rule="evenodd" d="M3 0.999023H21.4969V18.347H3V0.999023Z" fill="white"/>
</mask>
<g mask="url(#mask0_15358_11763)">
<path fill-rule="evenodd" clip-rule="evenodd" d="M12.2471 2.49902C8.75207 2.49902 6.31607 5.23702 6.31607 7.69402C6.31607 9.77302 5.73907 10.734 5.22907 11.582C4.82007 12.263 4.49707 12.801 4.49707 13.97C4.66407 15.856 5.90907 16.847 12.2471 16.847C18.5501 16.847 19.8341 15.812 20.0001 13.905C19.9971 12.801 19.6741 12.263 19.2651 11.582C18.7551 10.734 18.1781 9.77302 18.1781 7.69402C18.1781 5.23702 15.7421 2.49902 12.2471 2.49902ZM12.247 18.347C7.57101 18.347 3.34501 18.017 3.00001 14.034C2.99701 12.386 3.50001 11.548 3.94401 10.81C4.39301 10.062 4.81601 9.35702 4.81601 7.69402C4.81601 4.46102 7.80201 0.999023 12.247 0.999023C16.692 0.999023 19.678 4.46102 19.678 7.69402C19.678 9.35702 20.101 10.062 20.55 10.81C20.994 11.548 21.497 12.386 21.497 13.97C21.148 18.017 16.923 18.347 12.247 18.347Z" fill="#9DA8A7"/>
</g>
<path fill-rule="evenodd" clip-rule="evenodd" d="M12.1984 22.4989H12.1964C11.0754 22.4979 10.0144 22.0039 9.20939 21.1069C8.93239 20.7999 8.95739 20.3249 9.26539 20.0489C9.57339 19.7709 10.0474 19.7959 10.3244 20.1049C10.8424 20.6819 11.5074 20.9989 12.1974 20.9989H12.1984C12.8914 20.9989 13.5594 20.6819 14.0784 20.1039C14.3564 19.7969 14.8304 19.7719 15.1374 20.0489C15.4454 20.3259 15.4704 20.8009 15.1934 21.1079C14.3854 22.0049 13.3224 22.4989 12.1984 22.4989Z" fill="#9DA8A7"/>
<rect x="17.5" y="0.5" width="6" height="6" rx="3" fill="#F5BCBF" stroke="#F3FAF8"/>
</svg>
