<svg width="18" height="20" viewBox="0 0 18 20" fill="none" xmlns="http://www.w3.org/2000/svg">
<g clip-path="url(#clip0_15357_10335)">
<path d="M14.6803 10.534C14.6713 8.90076 15.4167 7.668 16.9254 6.76012C16.0812 5.56297 14.806 4.90432 13.1221 4.77526C11.5281 4.65064 9.78585 5.69648 9.14823 5.69648C8.47468 5.69648 6.93002 4.81976 5.71764 4.81976C3.21206 4.85981 0.549316 6.80018 0.549316 10.7477C0.549316 11.9137 0.76485 13.1182 1.19592 14.3614C1.77068 15.9947 3.84519 20 6.00951 19.9332C7.14107 19.9065 7.94034 19.1366 9.41315 19.1366C10.8411 19.1366 11.582 19.9332 12.8437 19.9332C15.026 19.9021 16.903 16.2617 17.4508 14.6239C14.5231 13.2577 14.6803 10.6186 14.6803 10.534ZM12.1388 3.22652C13.3646 1.7846 13.2524 0.47174 13.2164 0C12.1343 0.0623053 10.8815 0.729862 10.1675 1.55318C9.38172 2.43436 8.91922 3.5247 9.01801 4.753C10.19 4.84201 11.2587 4.24566 12.1388 3.22652Z" fill="white"/>
</g>
<defs>
<clipPath id="clip0_15357_10335">
<rect width="18" height="20" fill="white"/>
</clipPath>
</defs>
</svg>
