<svg width="50" height="50" viewBox="0 0 50 50" fill="none" xmlns="http://www.w3.org/2000/svg">
<path fill-rule="evenodd" clip-rule="evenodd" d="M14.3821 6.79504C17.0164 4.67002 20.03 4.07345 23.2228 5.36591C25.6948 6.3671 28.0284 7.0491 30.4608 6.90627C30.8018 6.88545 31.7124 6.77531 32.6016 6.66022C33.0328 6.60443 33.4396 6.55008 33.7388 6.50964L34.0958 6.4611L34.2256 6.44327L34.2276 6.443C34.7644 6.3687 35.298 6.60166 35.6236 7.0525C35.9494 7.50331 36.0164 8.10195 35.799 8.61872L32.5074 16.4477C32.6594 16.6947 32.812 16.9423 32.965 17.1906C34.121 19.0663 35.2978 20.976 36.4056 22.8965C38.634 26.759 41.2594 31.7992 39.1934 37.1662C39.1934 37.1665 39.1936 37.1662 39.1934 37.1662C37.9898 40.2944 35.643 42.32 32.977 43.5554C30.3288 44.7827 27.2998 45.2669 24.5226 45.3125C24.5068 45.3129 24.491 45.3129 24.4752 45.3125C21.699 45.2669 18.6704 44.7827 16.0225 43.5554C13.3567 42.32 11.01 40.2944 9.80627 37.1662C7.74041 31.7994 10.3657 26.7587 12.5942 22.8965C13.6319 21.0975 14.735 19.3127 15.8203 17.5566C16.0327 17.213 16.2444 16.8705 16.4548 16.5292L12.9229 9.64452C12.5914 8.99848 12.7354 8.19931 13.269 7.72229L13.272 7.71962L13.2768 7.71539L13.2918 7.70216L13.3442 7.65635C13.3894 7.61706 13.4557 7.56008 13.5452 7.48435C13.7243 7.33287 13.9974 7.10566 14.3821 6.79504ZM16.1561 9.31656L19.5151 15.8641C19.7707 16.3623 19.7482 16.9654 19.4564 17.4415C19.0781 18.0587 18.6993 18.6715 18.322 19.282C17.2438 21.0267 16.1774 22.7521 15.1658 24.5058C12.8565 28.5083 11.1424 32.2408 12.5908 36.0033C13.4322 38.19 15.0912 39.7035 17.242 40.7004C19.4039 41.7023 21.9936 42.1437 24.499 42.1875C27.0054 42.1437 29.5954 41.7023 31.7576 40.7002C33.9086 39.7035 35.5674 38.1902 36.409 36.0035C37.8572 32.241 36.1434 28.5083 33.8342 24.506C32.7516 22.6294 31.6056 20.7697 30.4526 18.8985C30.151 18.4093 29.849 17.9192 29.5476 17.4278C29.2778 16.9882 29.2366 16.4374 29.4374 15.9595L31.9916 9.88468C31.4388 9.95168 30.9244 10.0084 30.634 10.0261L30.6314 10.0262C27.5536 10.2073 24.7386 9.33266 22.1362 8.2787M16.1561 9.31656C16.1767 9.29991 16.1976 9.283 16.2189 9.26577L16.1561 9.31656ZM16.2189 9.26577C18.0873 7.75885 20.0014 7.41464 22.1362 8.2787L16.2189 9.26577Z" fill="black"/>
<path fill-rule="evenodd" clip-rule="evenodd" d="M19.6523 27.9112C19.6523 25.8221 21.2774 24.1292 23.2832 24.1292H27.2412C28.0696 24.1292 28.7412 24.8287 28.7412 25.6917C28.7412 26.5546 28.0696 27.2542 27.2412 27.2542H23.2832C22.9342 27.2542 22.6524 27.5479 22.6524 27.9112C22.6524 28.2764 22.936 28.5704 23.2832 28.5704H25.7194C27.7252 28.5704 29.3502 30.2631 29.3502 32.3525C29.3502 34.4417 27.7252 36.1346 25.7194 36.1346H21.7614C20.933 36.1346 20.2614 35.435 20.2614 34.5721C20.2614 33.7092 20.933 33.0096 21.7614 33.0096H25.7194C26.0682 33.0096 26.3502 32.7158 26.3502 32.3525C26.3502 31.9892 26.0682 31.6954 25.7194 31.6954H23.2832C21.2756 31.6954 19.6523 29.9987 19.6523 27.9112Z" fill="black"/>
<path fill-rule="evenodd" clip-rule="evenodd" d="M24.5 22.2576C25.3284 22.2576 26 22.9572 26 23.8201V25.7011C26 26.564 25.3284 27.2636 24.5 27.2636C23.6716 27.2636 23 26.564 23 25.7011V23.8201C23 22.9572 23.6716 22.2576 24.5 22.2576ZM24.5 33.0124C25.3284 33.0124 26 33.7119 26 34.5749V36.4397C26 37.3026 25.3284 38.0022 24.5 38.0022C23.6716 38.0022 23 37.3026 23 36.4397V34.5749C23 33.7119 23.6716 33.0124 24.5 33.0124Z" fill="black"/>
<path fill-rule="evenodd" clip-rule="evenodd" d="M16.7299 16.2682C16.9155 15.4272 17.7204 14.9021 18.5278 15.0955C22.5138 16.05 26.489 16.05 30.475 15.0955C31.2824 14.9021 32.0874 15.4272 32.273 16.2682C32.4586 17.1092 31.9544 17.9477 31.1472 18.141C26.7188 19.2014 22.284 19.2014 17.8557 18.141C17.0483 17.9477 16.5443 17.1092 16.7299 16.2682Z" fill="black"/>
</svg>
