<svg width="24" height="24" viewBox="0 0 24 24" fill="none" xmlns="http://www.w3.org/2000/svg">
<path d="M3.12055 21.6552H3.08885C2.99448 21.651 2.90182 21.6276 2.81615 21.5862C2.73048 21.5447 2.65349 21.4861 2.58957 21.4137C2.52565 21.3413 2.47605 21.2564 2.44361 21.164C2.41117 21.0716 2.39655 20.9735 2.40055 20.8752C2.47585 19.892 2.63979 18.9184 2.89016 17.9672C2.89253 17.845 2.92317 17.7253 2.97945 17.6182C3.85251 14.3259 5.48686 11.3067 7.73949 8.82471C9.99216 6.34276 12.7944 4.47373 15.9011 3.38115C17.9123 2.82015 20.2392 2.38115 20.9467 3.78115C21.539 4.95715 20.6204 6.77415 17.9708 9.67415C16.2246 11.5812 14.39 13.2171 14.3132 13.2851C14.2012 13.3849 14.0625 13.4464 13.9158 13.4612L10.3119 13.8301L11.4102 14.7302C11.4975 14.8027 11.5675 14.8955 11.6146 15.0011C11.6617 15.1067 11.6845 15.2223 11.6814 15.3386C11.6782 15.455 11.6491 15.569 11.5963 15.6717C11.5436 15.7744 11.4687 15.8628 11.3775 15.9302C9.28201 17.565 6.77629 18.5317 4.16404 18.7132C3.99859 19.4414 3.89107 20.1825 3.84248 20.9291C3.83625 21.1241 3.75738 21.3089 3.62264 21.4444C3.48789 21.58 3.30783 21.6555 3.12055 21.6552ZM18.9606 4.34314C18.0711 4.3841 17.19 4.54065 16.3379 4.80915C8.67607 7.75215 5.70678 13.4162 4.55862 17.1912C6.40424 16.9813 8.17685 16.3234 9.73392 15.2701L8.01653 13.8492C7.90417 13.7564 7.821 13.6307 7.77764 13.4883C7.73427 13.346 7.73269 13.1933 7.77313 13.05C7.81355 12.9067 7.89416 12.7793 8.00457 12.684C8.11498 12.5887 8.25018 12.5299 8.39287 12.5152L13.5452 11.9881C17.4255 8.50615 19.9772 5.16716 19.6719 4.47416C19.6719 4.47816 19.5366 4.34314 18.9606 4.34314Z" fill="black"/>
<path d="M18.0261 21.6542C17.1877 21.6724 16.3543 21.5167 15.5743 21.1962C14.3077 20.7029 12.9126 20.7029 11.646 21.1962C10.8661 21.5165 10.0332 21.6722 9.1951 21.6542C9.00414 21.6542 8.821 21.5752 8.68598 21.4345C8.55096 21.2939 8.4751 21.1031 8.4751 20.9042C8.4751 20.7053 8.55096 20.5145 8.68598 20.3739C8.821 20.2332 9.00414 20.1542 9.1951 20.1542C9.86689 20.1725 10.535 20.0469 11.1583 19.7852C12.7397 19.1732 14.4796 19.1732 16.061 19.7852C16.6849 20.0468 17.3537 20.1724 18.0261 20.1542C18.2171 20.1542 18.4002 20.2332 18.5352 20.3739C18.6703 20.5145 18.7461 20.7053 18.7461 20.9042C18.7461 21.1031 18.6703 21.2939 18.5352 21.4345C18.4002 21.5752 18.2171 21.6542 18.0261 21.6542Z" fill="black"/>
</svg>
