<svg width="20" height="20" viewBox="0 0 20 20" fill="none" xmlns="http://www.w3.org/2000/svg">
<path fill-rule="evenodd" clip-rule="evenodd" d="M9.43277 18.3337H5.3611C3.32443 18.3337 1.66693 16.6762 1.66693 14.6378V5.36366C1.66693 3.32533 3.32443 1.66699 5.3611 1.66699H9.4236C11.4619 1.66699 13.1203 3.32533 13.1203 5.36366V6.14033C13.1203 6.48533 12.8403 6.76533 12.4953 6.76533C12.1503 6.76533 11.8703 6.48533 11.8703 6.14033V5.36366C11.8703 4.01366 10.7728 2.91699 9.4236 2.91699H5.3611C4.0136 2.91699 2.91693 4.01366 2.91693 5.36366V14.6378C2.91693 15.987 4.0136 17.0837 5.3611 17.0837H9.43277C10.7761 17.0837 11.8703 15.9903 11.8703 14.647V13.8612C11.8703 13.5162 12.1503 13.2362 12.4953 13.2362C12.8403 13.2362 13.1203 13.5162 13.1203 13.8612V14.647C13.1203 16.6803 11.4653 18.3337 9.43277 18.3337Z" fill="#20211B"/>
<mask id="mask0_15399_5848" style="mask-type:luminance" maskUnits="userSpaceOnUse" x="7" y="9" width="12" height="2">
<path fill-rule="evenodd" clip-rule="evenodd" d="M7.49677 9.375H18.7808V10.625H7.49677V9.375Z" fill="white"/>
</mask>
<g mask="url(#mask0_15399_5848)">
<path fill-rule="evenodd" clip-rule="evenodd" d="M18.1559 10.625H8.12177C7.77677 10.625 7.49677 10.345 7.49677 10C7.49677 9.655 7.77677 9.375 8.12177 9.375H18.1559C18.5009 9.375 18.7809 9.655 18.7809 10C18.7809 10.345 18.5009 10.625 18.1559 10.625Z" fill="#20211B"/>
</g>
<mask id="mask1_15399_5848" style="mask-type:luminance" maskUnits="userSpaceOnUse" x="15" y="6" width="4" height="8">
<path fill-rule="evenodd" clip-rule="evenodd" d="M15.0914 6.94629H18.7809V13.0552H15.0914V6.94629Z" fill="white"/>
</mask>
<g mask="url(#mask1_15399_5848)">
<path fill-rule="evenodd" clip-rule="evenodd" d="M15.7162 13.0552C15.5562 13.0552 15.3954 12.9944 15.2737 12.8711C15.0304 12.6261 15.0312 12.2311 15.2754 11.9877L17.2704 10.0002L15.2754 8.01358C15.0312 7.77025 15.0295 7.37525 15.2737 7.13025C15.517 6.88525 15.912 6.88525 16.157 7.12858L18.597 9.55775C18.7154 9.67441 18.7812 9.83441 18.7812 10.0002C18.7812 10.1661 18.7154 10.3261 18.597 10.4427L16.157 12.8727C16.0354 12.9944 15.8754 13.0552 15.7162 13.0552Z" fill="#20211B"/>
</g>
</svg>
