<svg width="346" height="306" viewBox="0 0 346 306" fill="none" xmlns="http://www.w3.org/2000/svg">
<path d="M0 16C0 10.3995 0 7.59921 1.08993 5.46009C2.04867 3.57847 3.57847 2.04867 5.46009 1.08993C7.59921 0 10.3995 0 16 0H330C335.601 0 338.401 0 340.54 1.08993C342.422 2.04867 343.951 3.57847 344.91 5.46009C346 7.59921 346 10.3995 346 16V290C346 295.601 346 298.401 344.91 300.54C343.951 302.422 342.422 303.951 340.54 304.91C338.401 306 335.601 306 330 306H16C10.3995 306 7.59921 306 5.46009 304.91C3.57847 303.951 2.04867 302.422 1.08993 300.54C0 298.401 0 295.601 0 290V16Z" fill="white"/>
</svg>
