<svg width="20" height="20" viewBox="0 0 20 20" fill="none" xmlns="http://www.w3.org/2000/svg">
<mask id="mask0_15399_5885" style="mask-type:luminance" maskUnits="userSpaceOnUse" x="1" y="2" width="18" height="16">
<path fill-rule="evenodd" clip-rule="evenodd" d="M1.66666 2.5H18.3448V17.6546H1.66666V2.5Z" fill="white"/>
</mask>
<g mask="url(#mask0_15399_5885)">
<path fill-rule="evenodd" clip-rule="evenodd" d="M10.0106 3.75C9.61389 3.75 9.26056 3.955 9.06223 4.29917L3.06389 14.77C2.86889 15.1117 2.87056 15.5192 3.06806 15.86C3.26556 16.2008 3.61889 16.405 4.01306 16.405H15.9989C16.3922 16.405 16.7456 16.2008 16.9431 15.86C17.1414 15.5192 17.1431 15.1117 16.9464 14.77L10.9589 4.29917C10.7614 3.955 10.4081 3.75 10.0106 3.75ZM15.9989 17.655H4.01306C3.16806 17.655 2.41056 17.2183 1.98639 16.4867C1.56223 15.7558 1.55973 14.8817 1.97889 14.1492L7.97889 3.6775C8.40056 2.94 9.15973 2.5 10.0106 2.5H10.0114C10.8614 2.5 11.6222 2.94083 12.0439 3.67917L18.0322 14.1492C18.4514 14.8817 18.4489 15.7558 18.0247 16.4867C17.6006 17.2183 16.8431 17.655 15.9989 17.655Z" fill="#20211B"/>
</g>
<path fill-rule="evenodd" clip-rule="evenodd" d="M10.0032 11.804C9.65823 11.804 9.37823 11.524 9.37823 11.179V8.5957C9.37823 8.2507 9.65823 7.9707 10.0032 7.9707C10.3482 7.9707 10.6282 8.2507 10.6282 8.5957V11.179C10.6282 11.524 10.3482 11.804 10.0032 11.804Z" fill="#20211B"/>
<path fill-rule="evenodd" clip-rule="evenodd" d="M10.0049 14.5827C9.54409 14.5827 9.16742 14.2102 9.16742 13.7493C9.16742 13.2885 9.53659 12.916 9.99659 12.916H10.0049C10.4658 12.916 10.8383 13.2885 10.8383 13.7493C10.8383 14.2102 10.4658 14.5827 10.0049 14.5827Z" fill="#20211B"/>
</svg>
