<svg width="21" height="21" viewBox="0 0 21 21" fill="none" xmlns="http://www.w3.org/2000/svg">
<path fill-rule="evenodd" clip-rule="evenodd" d="M9.28696 7.48016L8.13068 9.88388L8.12967 9.88598C7.92153 10.3148 7.52509 10.6102 7.06896 10.6774C7.06851 10.6774 7.06807 10.6775 7.06762 10.6776L4.47398 11.0666C4.44257 11.071 4.41399 11.0862 4.39298 11.1088C4.34112 11.1651 4.34242 11.2547 4.39662 11.3095C4.39673 11.3096 4.3965 11.3094 4.39662 11.3095L6.26891 13.1815C6.26909 13.1817 6.26873 13.1813 6.26891 13.1815C6.60375 13.515 6.75835 14.0011 6.67844 14.4777L6.23623 17.1184C6.2319 17.149 6.23672 17.1816 6.25198 17.2121C6.29046 17.2866 6.37912 17.3144 6.45044 17.2749L6.45594 17.2719L8.77003 16.0225C9.17927 15.8023 9.66589 15.8019 10.0751 16.0222L12.3937 17.274C12.4223 17.2898 12.4547 17.2955 12.4865 17.2904C12.5667 17.2766 12.6203 17.1991 12.6089 17.117L12.1671 14.479C12.1671 14.4792 12.1671 14.4789 12.1671 14.479C12.0862 14.0015 12.2402 13.515 12.5759 13.1812C12.5763 13.1809 12.5767 13.1804 12.5772 13.18L14.4465 11.3092C14.4466 11.3091 14.4463 11.3093 14.4465 11.3092C14.4682 11.2872 14.483 11.2572 14.4871 11.2254C14.4967 11.1466 14.4434 11.0761 14.3701 11.066L14.3623 11.065L11.7758 10.6769C11.7753 10.6768 11.7749 10.6768 11.7744 10.6767C11.3185 10.6096 10.9214 10.3142 10.7137 9.88405L9.55879 7.47989C9.54383 7.45095 9.52157 7.42861 9.49545 7.41459L9.49427 7.41395C9.41876 7.37322 9.32686 7.40326 9.28696 7.48016ZM10.0733 6.24825C9.37995 5.8745 8.52651 6.15597 8.167 6.87881L7.0052 9.29378C7.0053 9.29361 7.00509 9.29404 7.0052 9.29378C6.98306 9.33893 6.94067 9.37078 6.89249 9.37778L4.30445 9.76602C3.99318 9.80994 3.70441 9.96184 3.48586 10.1978C2.95067 10.777 2.96789 11.6975 3.52218 12.2545L3.52332 12.2557L5.39861 14.1306C5.43051 14.1623 5.44462 14.2078 5.43723 14.2519L4.99413 16.8979L4.99295 16.9052C4.94344 17.2218 4.99562 17.5442 5.13791 17.8252L5.13872 17.8268C5.50246 18.5403 6.35189 18.8131 7.03803 18.436L9.34912 17.1882C9.34921 17.1882 9.34904 17.1883 9.34912 17.1882C9.39549 17.1634 9.45017 17.1633 9.49654 17.1881C9.49663 17.1881 9.49646 17.188 9.49654 17.1881L11.8067 18.4354C12.076 18.5832 12.384 18.6363 12.6852 18.5865L12.6864 18.5863C13.4533 18.4575 13.9763 17.7059 13.8525 16.9056L13.4081 14.252L13.4078 14.2506C13.4004 14.2066 13.4142 14.1621 13.4459 14.1307L15.3212 12.2539C15.5486 12.0254 15.6947 11.7231 15.7361 11.3978L15.7363 11.3968C15.8363 10.6032 15.3021 9.87233 14.5386 9.76532L11.9531 9.37752L11.9509 9.37717C11.9024 9.37008 11.861 9.33875 11.8396 9.29483C11.8397 9.295 11.8396 9.29474 11.8396 9.29483L10.683 6.88702L10.679 6.87905C10.5447 6.60874 10.3335 6.38812 10.0733 6.24825Z" fill="white"/>
<path fill-rule="evenodd" clip-rule="evenodd" d="M15.7903 2.39453C16.0633 2.39453 16.3053 2.57771 16.3895 2.84823C16.6443 3.66598 17.2594 4.30676 18.0445 4.57212C18.3041 4.6599 18.48 4.91192 18.48 5.19632C18.48 5.48072 18.3041 5.73275 18.0445 5.82053C17.2594 6.08589 16.6443 6.72667 16.3895 7.54442C16.3053 7.81493 16.0633 7.99812 15.7903 7.99812C15.5173 7.99812 15.2753 7.81493 15.1911 7.54442C14.9363 6.72667 14.3212 6.08589 13.5361 5.82053C13.2765 5.73275 13.1006 5.48072 13.1006 5.19632C13.1006 4.91192 13.2765 4.6599 13.5361 4.57212C14.3212 4.30676 14.9363 3.66598 15.1911 2.84823C15.2753 2.57771 15.5173 2.39453 15.7903 2.39453ZM15.0683 5.19632C15.34 5.41238 15.5829 5.66538 15.7903 5.94844C15.9977 5.66538 16.2406 5.41238 16.5123 5.19632C16.2406 4.98027 15.9977 4.72727 15.7903 4.44421C15.5829 4.72727 15.34 4.98027 15.0683 5.19632Z" fill="white"/>
<path fill-rule="evenodd" clip-rule="evenodd" d="M3.74427 4.54004C4.09222 4.54004 4.37427 4.83385 4.37427 5.19629V5.59784H4.76128C5.10922 5.59784 5.39128 5.89166 5.39128 6.25409C5.39128 6.61653 5.10922 6.91034 4.76128 6.91034H4.37427V7.3121C4.37427 7.67453 4.09222 7.96835 3.74427 7.96835C3.39634 7.96835 3.11427 7.67453 3.11427 7.3121V6.91034H2.7301C2.38216 6.91034 2.1001 6.61653 2.1001 6.25409C2.1001 5.89166 2.38216 5.59784 2.7301 5.59784H3.11427V5.19629C3.11427 4.83385 3.39634 4.54004 3.74427 4.54004Z" fill="white"/>
</svg>
