<svg width="15" height="15" viewBox="0 0 15 15" fill="none" xmlns="http://www.w3.org/2000/svg">
<mask id="mask0_15358_12018" style="mask-type:luminance" maskUnits="userSpaceOnUse" x="1" y="1" width="14" height="14">
<path fill-rule="evenodd" clip-rule="evenodd" d="M1.25 1.875H14.0453V14.0631H1.25V1.875Z" fill="white"/>
</mask>
<g mask="url(#mask0_15358_12018)">
<path fill-rule="evenodd" clip-rule="evenodd" d="M2.38985 7.57695C3.2661 10.3032 6.72798 12.5076 7.64798 13.0532C8.5711 12.5019 12.058 10.2732 12.9061 7.57945C13.463 5.8382 12.9461 3.63257 10.8924 2.9707C9.89735 2.65132 8.73673 2.8457 7.93548 3.4657C7.76798 3.59445 7.53548 3.59695 7.36673 3.46945C6.51798 2.83132 5.40923 2.64445 4.3986 2.9707C2.34798 3.63195 1.83298 5.83757 2.38985 7.57695ZM7.6486 14.0632C7.5711 14.0632 7.49423 14.0444 7.42423 14.0063C7.2286 13.8994 2.62048 11.3594 1.49735 7.8632C1.49673 7.8632 1.49673 7.86257 1.49673 7.86257C0.791726 5.66132 1.57673 2.89507 4.1111 2.0782C5.3011 1.6932 6.59798 1.86257 7.64673 2.52445C8.66298 1.88195 10.013 1.70445 11.1792 2.0782C13.7161 2.89632 14.5036 5.66195 13.7992 7.86257C12.7124 11.3188 8.07048 13.8969 7.8736 14.0051C7.8036 14.0438 7.7261 14.0632 7.6486 14.0632Z" fill="#F7BDC0"/>
</g>
</svg>
