<svg width="24" height="24" viewBox="0 0 24 24" fill="none" xmlns="http://www.w3.org/2000/svg">
<path d="M8.89836 21.0236V17.8785C8.89836 17.0756 9.58847 16.4248 10.4398 16.4248H13.5517C13.9605 16.4248 14.3525 16.578 14.6416 16.8506C14.9307 17.1232 15.0931 17.4929 15.0931 17.8785V21.0236C15.0905 21.3574 15.2293 21.6783 15.4786 21.9152C15.728 22.1521 16.0673 22.2853 16.4212 22.2853H18.5442C19.5358 22.2877 20.4876 21.9179 21.1897 21.2575C21.8917 20.5972 22.2863 19.7005 22.2863 18.7653V9.80549C22.2863 9.05011 21.9312 8.33359 21.3168 7.84895L14.0945 2.40905C12.8382 1.45525 11.0382 1.48604 9.81933 2.48219L2.76183 7.84895C2.11841 8.3193 1.73385 9.03795 1.71484 9.80549V18.7562C1.71484 20.7052 3.3902 22.2853 5.45687 22.2853H7.53146C8.26655 22.2853 8.86395 21.726 8.86928 21.0327L8.89836 21.0236Z" fill="#F5BCBF"/>
</svg>
