<svg xmlns="http://www.w3.org/2000/svg" xmlns:xlink="http://www.w3.org/1999/xlink" width="500" zoomAndPan="magnify" viewBox="0 0 375 74.999997" height="100" preserveAspectRatio="xMidYMid meet" version="1.0"><defs><g/><clipPath id="7c8abf4cbe"><path d="M 0 35 L 100 35 L 100 55 L 0 55 Z M 0 35 " clip-rule="nonzero"/></clipPath><clipPath id="07dd50bf45"><path d="M 0.984375 32.9375 L 99.261719 35.730469 L 98.667969 56.542969 L 0.394531 53.753906 Z M 0.984375 32.9375 " clip-rule="nonzero"/></clipPath><clipPath id="e08d83122d"><path d="M 0.984375 32.9375 L 99.261719 35.730469 L 98.667969 56.542969 L 0.394531 53.753906 Z M 0.984375 32.9375 " clip-rule="nonzero"/></clipPath><clipPath id="8a2a85e58e"><path d="M 0.984375 32.9375 L 99.261719 35.730469 L 98.667969 56.542969 L 0.394531 53.753906 Z M 0.984375 32.9375 " clip-rule="nonzero"/></clipPath><clipPath id="ff143caf07"><path d="M 274 25 L 374 25 L 374 39 L 274 39 Z M 274 25 " clip-rule="nonzero"/></clipPath><clipPath id="048a4dc25b"><path d="M 371.980469 49.851562 L 274.355469 38.238281 L 276.816406 17.558594 L 374.441406 29.175781 Z M 371.980469 49.851562 " clip-rule="nonzero"/></clipPath><clipPath id="d27e209f7e"><path d="M 371.980469 49.851562 L 274.355469 38.238281 L 276.816406 17.558594 L 374.441406 29.175781 Z M 371.980469 49.851562 " clip-rule="nonzero"/></clipPath><clipPath id="507b291977"><path d="M 371.980469 49.851562 L 274.355469 38.238281 L 276.816406 17.558594 L 374.441406 29.175781 Z M 371.980469 49.851562 " clip-rule="nonzero"/></clipPath></defs><g clip-path="url(#7c8abf4cbe)"><g clip-path="url(#07dd50bf45)"><g clip-path="url(#e08d83122d)"><g clip-path="url(#8a2a85e58e)"><path fill="#000000" d="M 99.054688 37.699219 L 99.101562 36.066406 C 98.941406 35.96875 98.800781 35.847656 98.683594 35.714844 C 95.164062 37.625 86.222656 41.417969 76.519531 43.710938 C 64.289062 46.605469 40.183594 52.976562 26.890625 53.105469 C 26.003906 53.144531 25.117188 53.121094 24.296875 53.097656 C 13.101562 52.777344 8.957031 49.417969 3.40625 44.367188 C 3.40625 44.367188 2.785156 43.96875 2.089844 43.949219 C 1.644531 43.9375 1.195312 44.113281 0.929688 44.679688 C 0.796875 44.867188 0.789062 45.121094 0.785156 45.308594 C 0.746094 46.644531 2.210938 48.464844 5.390625 50.207031 C 8.441406 51.945312 14.390625 54.148438 23.433594 54.40625 C 25.585938 54.46875 27.929688 54.40625 30.464844 54.226562 C 43.597656 53.136719 65.945312 48.433594 78.320312 45.035156 C 88.722656 42.175781 95.980469 39.679688 98.800781 38.1875 C 98.867188 38.011719 98.949219 37.851562 99.054688 37.699219 Z M 99.054688 37.699219 " fill-opacity="1" fill-rule="nonzero"/></g></g></g></g><g fill="#000000" fill-opacity="1"><g transform="translate(95.997894, 49.135327)"><g><path d="M 20.390625 -12.28125 C 20.648438 -12.09375 20.796875 -11.847656 20.828125 -11.546875 C 20.867188 -11.242188 20.796875 -10.976562 20.609375 -10.75 C 19.628906 -9.507812 18.492188 -8.398438 17.203125 -7.421875 C 15.910156 -6.453125 14.554688 -5.734375 13.140625 -5.265625 C 11.734375 -4.796875 10.375 -4.710938 9.0625 -5.015625 C 8.539062 -3.703125 7.800781 -2.6875 6.84375 -1.96875 C 5.882812 -1.257812 4.914062 -0.90625 3.9375 -0.90625 C 3.9375 -0.90625 3.925781 -0.90625 3.90625 -0.90625 C 3.894531 -0.90625 3.890625 -0.90625 3.890625 -0.90625 C 2.867188 -0.9375 1.972656 -1.28125 1.203125 -1.9375 C 0.441406 -2.59375 -0.0859375 -3.503906 -0.390625 -4.671875 C -0.734375 -5.984375 -0.789062 -7.226562 -0.5625 -8.40625 C -0.332031 -9.59375 0.078125 -10.632812 0.671875 -11.53125 C 1.273438 -12.4375 1.953125 -13.132812 2.703125 -13.625 C 2.960938 -13.8125 3.265625 -13.847656 3.609375 -13.734375 C 3.941406 -14.566406 4.414062 -15.207031 5.03125 -15.65625 C 5.65625 -16.101562 6.304688 -16.269531 6.984375 -16.15625 C 7.398438 -16.082031 7.847656 -15.828125 8.328125 -15.390625 C 8.816406 -14.960938 9.210938 -14.195312 9.515625 -13.09375 C 9.816406 -11.988281 9.910156 -10.363281 9.796875 -8.21875 C 9.753906 -7.84375 9.695312 -7.46875 9.625 -7.09375 C 10.644531 -6.90625 11.71875 -7.015625 12.84375 -7.421875 C 13.96875 -7.835938 15.054688 -8.46875 16.109375 -9.3125 C 17.160156 -10.164062 18.078125 -11.097656 18.859375 -12.109375 C 19.046875 -12.328125 19.289062 -12.457031 19.59375 -12.5 C 19.894531 -12.539062 20.160156 -12.46875 20.390625 -12.28125 Z M 3.9375 -3.09375 C 4.425781 -3.09375 4.96875 -3.316406 5.5625 -3.765625 C 6.164062 -4.222656 6.660156 -4.898438 7.046875 -5.796875 C 5.691406 -6.546875 4.722656 -7.410156 4.140625 -8.390625 C 3.554688 -9.367188 3.242188 -10.34375 3.203125 -11.3125 C 2.421875 -10.5625 1.90625 -9.601562 1.65625 -8.4375 C 1.414062 -7.28125 1.425781 -6.234375 1.6875 -5.296875 C 1.800781 -4.878906 2.023438 -4.40625 2.359375 -3.875 C 2.703125 -3.351562 3.226562 -3.09375 3.9375 -3.09375 Z M 7.609375 -8.328125 C 7.679688 -9.835938 7.648438 -11.003906 7.515625 -11.828125 C 7.390625 -12.648438 7.226562 -13.210938 7.03125 -13.515625 C 6.84375 -13.816406 6.710938 -13.984375 6.640625 -14.015625 C 6.609375 -14.015625 6.59375 -14.015625 6.59375 -14.015625 C 6.476562 -14.015625 6.304688 -13.898438 6.078125 -13.671875 C 5.859375 -13.453125 5.671875 -13.117188 5.515625 -12.671875 C 5.296875 -11.953125 5.316406 -11.171875 5.578125 -10.328125 C 5.835938 -9.484375 6.515625 -8.707031 7.609375 -8 C 7.609375 -8.113281 7.609375 -8.222656 7.609375 -8.328125 Z M 7.609375 -8.328125 "/></g></g></g><g fill="#000000" fill-opacity="1"><g transform="translate(114.015669, 49.135327)"><g><path d="M 22.46875 -12.15625 C 22.695312 -12.007812 22.847656 -11.785156 22.921875 -11.484375 C 22.992188 -11.179688 22.957031 -10.921875 22.8125 -10.703125 C 22.507812 -10.210938 22.03125 -9.457031 21.375 -8.4375 C 20.71875 -7.425781 19.925781 -6.3125 19 -5.09375 C 18.082031 -3.875 17.109375 -2.691406 16.078125 -1.546875 C 15.046875 -0.398438 14.019531 0.546875 13 1.296875 C 11.988281 2.046875 11.050781 2.421875 10.1875 2.421875 C 9.882812 2.421875 9.625 2.363281 9.40625 2.25 C 8.46875 1.914062 7.875 1.054688 7.625 -0.328125 C 7.382812 -1.722656 7.472656 -3.734375 7.890625 -6.359375 C 7.398438 -5.722656 6.875 -5.066406 6.3125 -4.390625 C 5.75 -3.710938 5.144531 -3.09375 4.5 -2.53125 C 3.53125 -1.707031 2.707031 -1.367188 2.03125 -1.515625 C 1.351562 -1.671875 0.898438 -1.859375 0.671875 -2.078125 C -0.00390625 -2.640625 -0.425781 -3.492188 -0.59375 -4.640625 C -0.757812 -5.785156 -0.703125 -7.0625 -0.421875 -8.46875 C -0.140625 -9.882812 0.375 -11.25 1.125 -12.5625 C 1.269531 -12.820312 1.492188 -12.988281 1.796875 -13.0625 C 2.097656 -13.132812 2.378906 -13.097656 2.640625 -12.953125 C 2.910156 -12.804688 3.082031 -12.585938 3.15625 -12.296875 C 3.226562 -12.015625 3.191406 -11.742188 3.046875 -11.484375 C 2.367188 -10.359375 1.914062 -9.238281 1.6875 -8.125 C 1.457031 -7.019531 1.390625 -6.070312 1.484375 -5.28125 C 1.585938 -4.5 1.769531 -3.992188 2.03125 -3.765625 C 2.175781 -3.660156 2.367188 -3.691406 2.609375 -3.859375 C 2.859375 -4.023438 3.019531 -4.128906 3.09375 -4.171875 C 3.8125 -4.804688 4.488281 -5.535156 5.125 -6.359375 C 5.757812 -7.191406 6.300781 -7.941406 6.75 -8.609375 C 7.351562 -9.441406 7.851562 -10.050781 8.25 -10.4375 C 8.644531 -10.832031 9.101562 -10.921875 9.625 -10.703125 C 10.15625 -10.515625 10.421875 -10.097656 10.421875 -9.453125 C 10.421875 -8.816406 10.328125 -7.957031 10.140625 -6.875 C 9.765625 -4.695312 9.59375 -3.109375 9.625 -2.109375 C 9.664062 -1.117188 9.757812 -0.484375 9.90625 -0.203125 C 10.0625 0.078125 10.15625 0.21875 10.1875 0.21875 C 10.644531 0.40625 11.882812 -0.484375 13.90625 -2.453125 C 15.9375 -4.421875 18.285156 -7.546875 20.953125 -11.828125 C 21.097656 -12.085938 21.320312 -12.242188 21.625 -12.296875 C 21.925781 -12.359375 22.207031 -12.3125 22.46875 -12.15625 Z M 22.46875 -12.15625 "/></g></g></g><g fill="#000000" fill-opacity="1"><g transform="translate(134.173056, 49.135327)"><g><path d="M 24.71875 -12.78125 C 24.976562 -12.632812 25.164062 -12.421875 25.28125 -12.140625 C 25.394531 -11.859375 25.378906 -11.582031 25.234375 -11.3125 C 24.515625 -9.78125 23.640625 -8.054688 22.609375 -6.140625 C 21.578125 -4.222656 20.476562 -2.296875 19.3125 -0.359375 C 18.144531 1.566406 16.960938 3.328125 15.765625 4.921875 C 14.566406 6.523438 13.40625 7.820312 12.28125 8.8125 C 11.15625 9.8125 10.140625 10.3125 9.234375 10.3125 C 8.972656 10.3125 8.726562 10.253906 8.5 10.140625 C 7.71875 9.835938 7.203125 9.125 6.953125 8 C 6.710938 6.875 6.742188 5.257812 7.046875 3.15625 C 7.566406 -0.632812 8.953125 -6.003906 11.203125 -12.953125 C 11.171875 -12.953125 11.144531 -12.941406 11.125 -12.921875 C 11.101562 -12.898438 11.070312 -12.890625 11.03125 -12.890625 C 10.28125 -12.367188 9.378906 -11.828125 8.328125 -11.265625 C 7.273438 -10.703125 6.1875 -10.328125 5.0625 -10.140625 C 3.9375 -9.953125 2.867188 -10.195312 1.859375 -10.875 C 0.429688 -11.882812 -0.296875 -13.289062 -0.328125 -15.09375 C -0.367188 -16.894531 0.300781 -18.863281 1.6875 -21 C 2.132812 -21.675781 2.722656 -22.425781 3.453125 -23.25 C 4.191406 -24.082031 4.960938 -24.722656 5.765625 -25.171875 C 6.578125 -25.617188 7.300781 -25.640625 7.9375 -25.234375 C 8.28125 -25.046875 8.535156 -24.722656 8.703125 -24.265625 C 8.867188 -23.816406 8.859375 -23.125 8.671875 -22.1875 C 8.484375 -21.25 8.03125 -19.988281 7.3125 -18.40625 C 6.601562 -16.832031 5.535156 -14.789062 4.109375 -12.28125 C 4.972656 -12.164062 5.9375 -12.40625 7 -13 C 8.070312 -13.601562 9.023438 -14.171875 9.859375 -14.703125 C 10.640625 -15.222656 11.289062 -15.601562 11.8125 -15.84375 C 12.34375 -16.09375 12.835938 -16.050781 13.296875 -15.71875 C 13.703125 -15.375 13.867188 -14.957031 13.796875 -14.46875 C 13.722656 -13.976562 13.648438 -13.601562 13.578125 -13.34375 C 12.335938 -9.4375 11.378906 -6.1875 10.703125 -3.59375 C 10.023438 -1.007812 9.5625 1.066406 9.3125 2.640625 C 9.070312 4.222656 8.953125 5.40625 8.953125 6.1875 C 8.953125 6.976562 9.007812 7.492188 9.125 7.734375 C 9.238281 7.984375 9.296875 8.128906 9.296875 8.171875 C 9.742188 8.242188 10.671875 7.519531 12.078125 6 C 13.484375 4.476562 15.160156 2.1875 17.109375 -0.875 C 19.066406 -3.9375 21.113281 -7.71875 23.25 -12.21875 C 23.40625 -12.519531 23.625 -12.71875 23.90625 -12.8125 C 24.1875 -12.90625 24.457031 -12.894531 24.71875 -12.78125 Z M 2.03125 -16.609375 C 1.800781 -15.816406 1.734375 -15.164062 1.828125 -14.65625 C 1.921875 -14.15625 2.0625 -13.753906 2.25 -13.453125 C 3.445312 -15.554688 4.351562 -17.265625 4.96875 -18.578125 C 5.59375 -19.890625 6.019531 -20.898438 6.25 -21.609375 C 6.476562 -22.328125 6.609375 -22.835938 6.640625 -23.140625 C 6.234375 -22.921875 5.71875 -22.488281 5.09375 -21.84375 C 4.476562 -21.207031 3.878906 -20.4375 3.296875 -19.53125 C 2.710938 -18.632812 2.289062 -17.660156 2.03125 -16.609375 Z M 2.03125 -16.609375 "/></g></g></g><g fill="#000000" fill-opacity="1"><g transform="translate(156.638967, 49.135327)"><g/></g></g><g fill="#000000" fill-opacity="1"><g transform="translate(173.924764, 49.135327)"><g><path d="M 28.265625 -12.28125 C 28.523438 -12.09375 28.664062 -11.847656 28.6875 -11.546875 C 28.707031 -11.242188 28.625 -10.976562 28.4375 -10.75 C 27.007812 -9.101562 25.375 -7.910156 23.53125 -7.171875 C 21.695312 -6.441406 19.953125 -6.300781 18.296875 -6.75 C 16.378906 -7.238281 14.898438 -8.425781 13.859375 -10.3125 C 12.910156 -7.039062 11.484375 -3.828125 9.578125 -0.671875 C 8.296875 1.460938 7 3.234375 5.6875 4.640625 C 4.375 6.046875 3.191406 6.921875 2.140625 7.265625 C 1.765625 7.378906 1.40625 7.4375 1.0625 7.4375 C 0.65625 7.4375 0.3125 7.347656 0.03125 7.171875 C -0.25 7.003906 -0.46875 6.863281 -0.625 6.75 C -0.769531 6.5625 -0.960938 6.269531 -1.203125 5.875 C -1.453125 5.488281 -1.625 4.851562 -1.71875 3.96875 C -1.8125 3.082031 -1.765625 1.8125 -1.578125 0.15625 C -1.390625 -1.488281 -0.96875 -3.632812 -0.3125 -6.28125 C 0.34375 -8.925781 1.328125 -12.203125 2.640625 -16.109375 C 2.722656 -16.367188 2.90625 -16.5625 3.1875 -16.6875 C 3.46875 -16.820312 3.738281 -16.851562 4 -16.78125 C 4.300781 -16.664062 4.515625 -16.476562 4.640625 -16.21875 C 4.773438 -15.957031 4.785156 -15.675781 4.671875 -15.375 C 3.503906 -11.84375 2.609375 -8.863281 1.984375 -6.4375 C 1.367188 -4.019531 0.945312 -2.050781 0.71875 -0.53125 C 0.5 0.988281 0.398438 2.148438 0.421875 2.953125 C 0.441406 3.765625 0.515625 4.328125 0.640625 4.640625 C 0.773438 4.960938 0.863281 5.144531 0.90625 5.1875 C 0.9375 5.21875 0.976562 5.242188 1.03125 5.265625 C 1.09375 5.285156 1.238281 5.257812 1.46875 5.1875 C 2.25 4.914062 3.203125 4.148438 4.328125 2.890625 C 5.460938 1.640625 6.597656 0.0664062 7.734375 -1.828125 C 8.878906 -3.722656 9.882812 -5.757812 10.75 -7.9375 C 11.613281 -10.113281 12.195312 -12.253906 12.5 -14.359375 C 12.570312 -14.960938 12.929688 -15.28125 13.578125 -15.3125 C 14.171875 -15.3125 14.523438 -15.015625 14.640625 -14.421875 C 15.242188 -11.265625 16.648438 -9.40625 18.859375 -8.84375 C 20.097656 -8.5 21.441406 -8.628906 22.890625 -9.234375 C 24.335938 -9.835938 25.625 -10.8125 26.75 -12.15625 C 26.976562 -12.382812 27.234375 -12.507812 27.515625 -12.53125 C 27.796875 -12.550781 28.046875 -12.46875 28.265625 -12.28125 Z M 28.265625 -12.28125 "/></g></g></g><g fill="#000000" fill-opacity="1"><g transform="translate(200.500984, 49.135327)"><g><path d="M 20.390625 -12.28125 C 20.648438 -12.09375 20.796875 -11.847656 20.828125 -11.546875 C 20.867188 -11.242188 20.796875 -10.976562 20.609375 -10.75 C 19.628906 -9.507812 18.492188 -8.398438 17.203125 -7.421875 C 15.910156 -6.453125 14.554688 -5.734375 13.140625 -5.265625 C 11.734375 -4.796875 10.375 -4.710938 9.0625 -5.015625 C 8.539062 -3.703125 7.800781 -2.6875 6.84375 -1.96875 C 5.882812 -1.257812 4.914062 -0.90625 3.9375 -0.90625 C 3.9375 -0.90625 3.925781 -0.90625 3.90625 -0.90625 C 3.894531 -0.90625 3.890625 -0.90625 3.890625 -0.90625 C 2.867188 -0.9375 1.972656 -1.28125 1.203125 -1.9375 C 0.441406 -2.59375 -0.0859375 -3.503906 -0.390625 -4.671875 C -0.734375 -5.984375 -0.789062 -7.226562 -0.5625 -8.40625 C -0.332031 -9.59375 0.078125 -10.632812 0.671875 -11.53125 C 1.273438 -12.4375 1.953125 -13.132812 2.703125 -13.625 C 2.960938 -13.8125 3.265625 -13.847656 3.609375 -13.734375 C 3.941406 -14.566406 4.414062 -15.207031 5.03125 -15.65625 C 5.65625 -16.101562 6.304688 -16.269531 6.984375 -16.15625 C 7.398438 -16.082031 7.847656 -15.828125 8.328125 -15.390625 C 8.816406 -14.960938 9.210938 -14.195312 9.515625 -13.09375 C 9.816406 -11.988281 9.910156 -10.363281 9.796875 -8.21875 C 9.753906 -7.84375 9.695312 -7.46875 9.625 -7.09375 C 10.644531 -6.90625 11.71875 -7.015625 12.84375 -7.421875 C 13.96875 -7.835938 15.054688 -8.46875 16.109375 -9.3125 C 17.160156 -10.164062 18.078125 -11.097656 18.859375 -12.109375 C 19.046875 -12.328125 19.289062 -12.457031 19.59375 -12.5 C 19.894531 -12.539062 20.160156 -12.46875 20.390625 -12.28125 Z M 3.9375 -3.09375 C 4.425781 -3.09375 4.96875 -3.316406 5.5625 -3.765625 C 6.164062 -4.222656 6.660156 -4.898438 7.046875 -5.796875 C 5.691406 -6.546875 4.722656 -7.410156 4.140625 -8.390625 C 3.554688 -9.367188 3.242188 -10.34375 3.203125 -11.3125 C 2.421875 -10.5625 1.90625 -9.601562 1.65625 -8.4375 C 1.414062 -7.28125 1.425781 -6.234375 1.6875 -5.296875 C 1.800781 -4.878906 2.023438 -4.40625 2.359375 -3.875 C 2.703125 -3.351562 3.226562 -3.09375 3.9375 -3.09375 Z M 7.609375 -8.328125 C 7.679688 -9.835938 7.648438 -11.003906 7.515625 -11.828125 C 7.390625 -12.648438 7.226562 -13.210938 7.03125 -13.515625 C 6.84375 -13.816406 6.710938 -13.984375 6.640625 -14.015625 C 6.609375 -14.015625 6.59375 -14.015625 6.59375 -14.015625 C 6.476562 -14.015625 6.304688 -13.898438 6.078125 -13.671875 C 5.859375 -13.453125 5.671875 -13.117188 5.515625 -12.671875 C 5.296875 -11.953125 5.316406 -11.171875 5.578125 -10.328125 C 5.835938 -9.484375 6.515625 -8.707031 7.609375 -8 C 7.609375 -8.113281 7.609375 -8.222656 7.609375 -8.328125 Z M 7.609375 -8.328125 "/></g></g></g><g fill="#000000" fill-opacity="1"><g transform="translate(218.518754, 49.135327)"><g><path d="M 34.515625 -12.671875 C 34.703125 -12.484375 34.804688 -12.238281 34.828125 -11.9375 C 34.847656 -11.632812 34.742188 -11.375 34.515625 -11.15625 C 32.753906 -9.351562 30.960938 -8.09375 29.140625 -7.375 C 27.316406 -6.664062 25.640625 -6.535156 24.109375 -6.984375 C 23.429688 -7.210938 22.710938 -7.585938 21.953125 -8.109375 C 21.203125 -8.628906 20.546875 -9.457031 19.984375 -10.59375 C 19.421875 -8.488281 18.785156 -6.476562 18.078125 -4.5625 C 17.285156 -2.5 16.578125 -0.972656 15.953125 0.015625 C 15.335938 1.015625 14.785156 1.675781 14.296875 2 C 13.816406 2.320312 13.390625 2.484375 13.015625 2.484375 C 12.335938 2.484375 11.8125 2.226562 11.4375 1.71875 C 11.0625 1.207031 10.78125 0.648438 10.59375 0.046875 C 10.40625 -0.546875 10.269531 -1.007812 10.1875 -1.34375 C 10.082031 -1.988281 9.988281 -2.742188 9.90625 -3.609375 C 8.632812 -1.617188 7.613281 -0.128906 6.84375 0.859375 C 6.070312 1.859375 5.382812 2.640625 4.78125 3.203125 C 4.289062 3.691406 3.835938 4.019531 3.421875 4.1875 C 3.015625 4.363281 2.644531 4.453125 2.3125 4.453125 C 2.050781 4.453125 1.804688 4.410156 1.578125 4.328125 C 1.347656 4.253906 1.175781 4.160156 1.0625 4.046875 C 0.125 3.453125 -0.4375 2.160156 -0.625 0.171875 C -0.8125 -1.816406 -0.640625 -4.253906 -0.109375 -7.140625 C 0.410156 -10.035156 1.273438 -13.175781 2.484375 -16.5625 C 2.585938 -16.820312 2.769531 -17.015625 3.03125 -17.140625 C 3.300781 -17.273438 3.585938 -17.285156 3.890625 -17.171875 C 4.148438 -17.097656 4.34375 -16.921875 4.46875 -16.640625 C 4.601562 -16.359375 4.613281 -16.085938 4.5 -15.828125 C 3.15625 -12.066406 2.285156 -8.878906 1.890625 -6.265625 C 1.492188 -3.660156 1.367188 -1.644531 1.515625 -0.21875 C 1.671875 1.207031 1.914062 2.03125 2.25 2.25 C 2.40625 2.363281 2.765625 2.160156 3.328125 1.640625 C 3.773438 1.222656 4.269531 0.671875 4.8125 -0.015625 C 5.351562 -0.710938 6.023438 -1.660156 6.828125 -2.859375 C 7.640625 -4.066406 8.664062 -5.648438 9.90625 -7.609375 C 10.175781 -8.054688 10.570312 -8.203125 11.09375 -8.046875 C 11.613281 -7.898438 11.875 -7.546875 11.875 -6.984375 C 11.875 -6.304688 11.910156 -5.476562 11.984375 -4.5 C 12.066406 -3.53125 12.179688 -2.613281 12.328125 -1.75 C 12.484375 -1.101562 12.613281 -0.628906 12.71875 -0.328125 C 12.832031 -0.0351562 12.929688 0.164062 13.015625 0.28125 C 13.390625 0.0507812 13.847656 -0.582031 14.390625 -1.625 C 14.929688 -2.675781 15.492188 -3.953125 16.078125 -5.453125 C 16.660156 -6.960938 17.1875 -8.539062 17.65625 -10.1875 C 18.125 -11.84375 18.453125 -13.382812 18.640625 -14.8125 C 18.753906 -15.414062 19.109375 -15.71875 19.703125 -15.71875 C 20.304688 -15.75 20.664062 -15.460938 20.78125 -14.859375 C 21.414062 -11.597656 22.726562 -9.664062 24.71875 -9.0625 C 25.84375 -8.726562 27.132812 -8.878906 28.59375 -9.515625 C 30.0625 -10.148438 31.53125 -11.203125 33 -12.671875 C 33.1875 -12.898438 33.429688 -13.015625 33.734375 -13.015625 C 34.035156 -13.015625 34.296875 -12.898438 34.515625 -12.671875 Z M 34.515625 -12.671875 "/></g></g></g><g fill="#000000" fill-opacity="1"><g transform="translate(250.556612, 49.135327)"><g><path d="M 25.0625 -12.890625 C 25.28125 -12.703125 25.410156 -12.457031 25.453125 -12.15625 C 25.492188 -11.863281 25.398438 -11.601562 25.171875 -11.375 C 24.078125 -10.09375 22.875 -8.679688 21.5625 -7.140625 C 20.25 -5.609375 18.960938 -4.109375 17.703125 -2.640625 C 16.453125 -1.179688 15.375 0.0820312 14.46875 1.15625 C 13.570312 2.226562 12.972656 2.953125 12.671875 3.328125 C 12.035156 4.148438 11.414062 4.957031 10.8125 5.75 C 11.300781 7.925781 11.347656 9.976562 10.953125 11.90625 C 10.554688 13.84375 9.898438 15.5625 8.984375 17.0625 C 8.066406 18.5625 7.097656 19.722656 6.078125 20.546875 C 5.023438 21.453125 4.050781 21.90625 3.15625 21.90625 C 2.59375 21.90625 2.125 21.71875 1.75 21.34375 C 1.101562 20.738281 0.882812 19.84375 1.09375 18.65625 C 1.300781 17.476562 1.78125 16.140625 2.53125 14.640625 C 3.28125 13.140625 4.179688 11.582031 5.234375 9.96875 C 6.285156 8.351562 7.359375 6.796875 8.453125 5.296875 C 8.265625 4.617188 8 3.929688 7.65625 3.234375 C 7.320312 2.546875 6.925781 1.84375 6.46875 1.125 C 4.9375 -1.195312 3.632812 -3.378906 2.5625 -5.421875 C 1.488281 -7.472656 0.988281 -9.34375 1.0625 -11.03125 C 1.25 -14.15625 2.640625 -16.484375 5.234375 -18.015625 C 6.285156 -18.660156 7.394531 -19.035156 8.5625 -19.140625 C 9.726562 -19.253906 10.796875 -19.085938 11.765625 -18.640625 C 12.023438 -18.492188 12.203125 -18.273438 12.296875 -17.984375 C 12.390625 -17.703125 12.382812 -17.429688 12.28125 -17.171875 C 12.125 -16.910156 11.90625 -16.734375 11.625 -16.640625 C 11.34375 -16.546875 11.070312 -16.554688 10.8125 -16.671875 C 9.457031 -17.304688 7.972656 -17.132812 6.359375 -16.15625 C 4.410156 -15 3.378906 -13.253906 3.265625 -10.921875 C 3.191406 -9.535156 3.660156 -7.898438 4.671875 -6.015625 C 5.679688 -4.140625 6.882812 -2.171875 8.28125 -0.109375 C 8.988281 0.972656 9.570312 2.078125 10.03125 3.203125 C 10.320312 2.828125 10.640625 2.414062 10.984375 1.96875 C 11.285156 1.59375 11.894531 0.863281 12.8125 -0.21875 C 13.726562 -1.3125 14.804688 -2.585938 16.046875 -4.046875 C 17.285156 -5.515625 18.570312 -7.019531 19.90625 -8.5625 C 21.238281 -10.101562 22.445312 -11.507812 23.53125 -12.78125 C 23.71875 -13.007812 23.960938 -13.140625 24.265625 -13.171875 C 24.566406 -13.210938 24.832031 -13.117188 25.0625 -12.890625 Z M 6.75 16.5625 C 7.019531 16.144531 7.34375 15.550781 7.71875 14.78125 C 8.09375 14.007812 8.421875 13.070312 8.703125 11.96875 C 8.984375 10.863281 9.066406 9.632812 8.953125 8.28125 C 7.222656 10.71875 5.9375 12.742188 5.09375 14.359375 C 4.25 15.972656 3.703125 17.203125 3.453125 18.046875 C 3.210938 18.890625 3.128906 19.441406 3.203125 19.703125 C 3.472656 19.703125 3.941406 19.457031 4.609375 18.96875 C 5.285156 18.488281 6 17.6875 6.75 16.5625 Z M 6.75 16.5625 "/></g></g></g><g clip-path="url(#ff143caf07)"><g clip-path="url(#048a4dc25b)"><g clip-path="url(#d27e209f7e)"><g clip-path="url(#507b291977)"><path fill="#000000" d="M 274.738281 36.296875 L 274.546875 37.917969 C 274.695312 38.027344 274.824219 38.160156 274.929688 38.304688 C 278.605469 36.71875 287.851562 33.746094 297.71875 32.332031 C 310.164062 30.550781 334.742188 26.371094 347.996094 27.4375 C 348.882812 27.476562 349.761719 27.582031 350.578125 27.679688 C 361.699219 29.003906 365.523438 32.722656 370.601562 38.25 C 370.601562 38.25 371.183594 38.703125 371.875 38.785156 C 372.3125 38.839844 372.777344 38.703125 373.09375 38.164062 C 373.242188 37.988281 373.273438 37.738281 373.296875 37.546875 C 373.453125 36.222656 372.15625 34.277344 369.148438 32.253906 C 366.265625 30.25 360.535156 27.519531 351.554688 26.453125 C 349.417969 26.199219 347.078125 26.046875 344.535156 26 C 331.359375 25.90625 308.679688 28.582031 296.050781 30.855469 C 285.433594 32.761719 277.980469 34.597656 275.03125 35.832031 C 274.953125 36 274.855469 36.152344 274.738281 36.296875 Z M 274.738281 36.296875 " fill-opacity="1" fill-rule="nonzero"/></g></g></g></g></svg>