<svg width="20" height="20" viewBox="0 0 20 20" fill="none" xmlns="http://www.w3.org/2000/svg">
<mask id="mask0_15399_5879" style="mask-type:luminance" maskUnits="userSpaceOnUse" x="0" y="0" width="19" height="19">
<path fill-rule="evenodd" clip-rule="evenodd" d="M0.833344 0.833008H18.7442V18.7445H0.833344V0.833008Z" fill="white"/>
</mask>
<g mask="url(#mask0_15399_5879)">
<path fill-rule="evenodd" clip-rule="evenodd" d="M5.09034 16.3955C5.57368 16.3955 6.02951 16.5788 6.51201 16.773C9.46784 18.1397 12.9637 17.518 15.2412 15.2413C18.2462 12.2347 18.2462 7.34384 15.2412 4.33884C13.7862 2.88384 11.8512 2.08301 9.79118 2.08301C7.73034 2.08301 5.79451 2.88467 4.34034 4.33967C2.06201 6.61634 1.44201 10.1122 2.79618 13.0397C2.99118 13.5222 3.17951 13.9922 3.17951 14.4805C3.17951 14.968 3.01201 15.4588 2.86451 15.8922C2.74284 16.2488 2.55868 16.7872 2.67701 16.9055C2.79284 17.0255 3.33451 16.8363 3.69201 16.7138C4.12118 16.5672 4.60784 16.3988 5.09034 16.3955ZM9.77034 18.7447C8.49701 18.7447 7.21534 18.4755 6.01618 17.9205C5.66284 17.7788 5.33201 17.6455 5.09451 17.6455C4.82118 17.6472 4.45368 17.7738 4.09868 17.8963C3.37034 18.1463 2.46368 18.458 1.79284 17.7897C1.12451 17.1205 1.43284 16.2163 1.68118 15.4888C1.80368 15.1305 1.92951 14.7605 1.92951 14.4805C1.92951 14.2505 1.81868 13.9572 1.64868 13.5347C0.0878439 10.1638 0.809511 6.10134 3.45701 3.45551C5.14701 1.76467 7.39618 0.833008 9.79034 0.833008C12.1845 0.833008 14.4345 1.76384 16.1245 3.45467C19.6178 6.94801 19.6178 12.6313 16.1245 16.1247C14.412 17.838 12.1062 18.7447 9.77034 18.7447Z" fill="#20211B"/>
</g>
<path fill-rule="evenodd" clip-rule="evenodd" d="M13.0803 10.9694C12.6203 10.9694 12.2436 10.5969 12.2436 10.1361C12.2436 9.67523 12.6128 9.30273 13.0728 9.30273H13.0803C13.5403 9.30273 13.9136 9.67523 13.9136 10.1361C13.9136 10.5969 13.5403 10.9694 13.0803 10.9694Z" fill="#20211B"/>
<path fill-rule="evenodd" clip-rule="evenodd" d="M9.73959 10.9694C9.27959 10.9694 8.90292 10.5969 8.90292 10.1361C8.90292 9.67523 9.27126 9.30273 9.73209 9.30273H9.73959C10.1996 9.30273 10.5729 9.67523 10.5729 10.1361C10.5729 10.5969 10.1996 10.9694 9.73959 10.9694Z" fill="#20211B"/>
<path fill-rule="evenodd" clip-rule="evenodd" d="M6.39859 10.9694C5.93859 10.9694 5.56192 10.5969 5.56192 10.1361C5.56192 9.67523 5.93109 9.30273 6.39109 9.30273H6.39859C6.85859 9.30273 7.23192 9.67523 7.23192 10.1361C7.23192 10.5969 6.85859 10.9694 6.39859 10.9694Z" fill="#20211B"/>
</svg>
