<svg width="24" height="24" viewBox="0 0 24 24" fill="none" xmlns="http://www.w3.org/2000/svg">
<path fill-rule="evenodd" clip-rule="evenodd" d="M13.9199 18.5928H20.2209C20.6349 18.5928 20.9709 18.2568 20.9709 17.8428C20.9709 17.4288 20.6349 17.0928 20.2209 17.0928H13.9199C13.5059 17.0928 13.1699 17.4288 13.1699 17.8428C13.1699 18.2568 13.5059 18.5928 13.9199 18.5928Z" fill="#9DA8A7"/>
<path fill-rule="evenodd" clip-rule="evenodd" d="M4.80913 8.90039H11.1091C11.5231 8.90039 11.8591 8.56439 11.8591 8.15039C11.8591 7.73639 11.5231 7.40039 11.1091 7.40039H4.80913C4.39513 7.40039 4.05913 7.73639 4.05913 8.15039C4.05913 8.56439 4.39513 8.90039 4.80913 8.90039Z" fill="#9DA8A7"/>
<mask id="mask0_15358_11859" style="mask-type:luminance" maskUnits="userSpaceOnUse" x="14" y="5" width="7" height="7">
<path fill-rule="evenodd" clip-rule="evenodd" d="M21 5H14.7742V11.1916H21V5Z" fill="white"/>
</mask>
<g mask="url(#mask0_15358_11859)">
<path fill-rule="evenodd" clip-rule="evenodd" d="M17.8872 6.5C18.7762 6.5 19.5002 7.216 19.5002 8.097C19.5002 8.977 18.7762 9.692 17.8872 9.692C16.9972 9.692 16.2742 8.977 16.2742 8.097C16.2742 7.216 16.9972 6.5 17.8872 6.5ZM17.8872 11.192C19.6032 11.192 21.0002 9.804 21.0002 8.097C21.0002 6.39 19.6032 5 17.8872 5C16.1702 5 14.7742 6.39 14.7742 8.097C14.7742 9.804 16.1702 11.192 17.8872 11.192Z" fill="#9DA8A7"/>
</g>
<path fill-rule="evenodd" clip-rule="evenodd" d="M6.61232 16.208C7.50232 16.208 8.22632 16.924 8.22632 17.804C8.22632 18.685 7.50232 19.4 6.61232 19.4C5.72332 19.4 5.00032 18.685 5.00032 17.804C5.00032 16.924 5.72332 16.208 6.61232 16.208ZM6.61232 20.9C8.32932 20.9 9.72632 19.511 9.72632 17.804C9.72632 16.097 8.32932 14.708 6.61232 14.708C4.89632 14.708 3.50032 16.097 3.50032 17.804C3.50032 19.511 4.89632 20.9 6.61232 20.9Z" fill="#9DA8A7"/>
</svg>
