<svg width="20" height="20" viewBox="0 0 20 20" fill="none" xmlns="http://www.w3.org/2000/svg">
<path fill-rule="evenodd" clip-rule="evenodd" d="M9.8 3.125C6.15463 3.125 3.2 6.20274 3.2 10C3.2 13.7965 6.15468 16.875 9.8 16.875C13.4454 16.875 16.4 13.7965 16.4 10C16.4 6.20274 13.4454 3.125 9.8 3.125ZM2 10C2 5.51239 5.4919 1.875 9.8 1.875C14.1081 1.875 17.6 5.51239 17.6 10C17.6 14.4867 14.1082 18.125 9.8 18.125C5.49185 18.125 2 14.4867 2 10Z" fill="black"/>
<path fill-rule="evenodd" clip-rule="evenodd" d="M9.75784 12.8721C10.0892 12.8721 10.3578 13.1519 10.3578 13.4971V13.5206C10.3578 13.8657 10.0892 14.1456 9.75784 14.1456C9.42648 14.1456 9.15784 13.8657 9.15784 13.5206V13.4971C9.15784 13.1519 9.42648 12.8721 9.75784 12.8721Z" fill="black"/>
<path fill-rule="evenodd" clip-rule="evenodd" d="M7.44217 8.49441C7.44217 7.04494 8.56159 5.87891 9.95311 5.87891C11.3365 5.87891 12.4633 7.04378 12.4633 8.49441C12.4633 9.51633 11.9016 10.2389 11.1713 10.6595C11.1259 10.6865 11.0825 10.7119 11.041 10.7362C10.8294 10.8602 10.6672 10.9553 10.5345 11.0797C10.4041 11.2018 10.3551 11.3053 10.3569 11.4497C10.3613 11.7949 10.0961 12.0784 9.76479 12.0829C9.43343 12.0874 9.16135 11.8113 9.15703 11.4662C9.14951 10.8679 9.41991 10.4427 9.73191 10.1504C9.97375 9.92366 10.2742 9.7495 10.4829 9.6285C10.5184 9.608 10.5512 9.589 10.5805 9.5715L10.5882 9.567C11.0314 9.31258 11.2633 8.96091 11.2633 8.49441C11.2633 7.73646 10.676 7.12891 9.95311 7.12891C9.22431 7.12891 8.64215 7.7353 8.64215 8.49441C8.64215 8.83958 8.37351 9.11941 8.04215 9.11941C7.7108 9.11941 7.44217 8.83958 7.44217 8.49441Z" fill="black"/>
</svg>
