<svg width="24" height="24" viewBox="0 0 24 24" fill="none" xmlns="http://www.w3.org/2000/svg">
<path fill-rule="evenodd" clip-rule="evenodd" d="M16.5771 22.3681H7.75312C4.31212 22.3681 2.00012 19.9531 2.00012 16.3591V8.04513C2.00012 4.45113 4.31212 2.03613 7.75312 2.03613H11.4921C11.9061 2.03613 12.2421 2.37213 12.2421 2.78613C12.2421 3.20013 11.9061 3.53613 11.4921 3.53613H7.75312C5.16912 3.53613 3.50012 5.30613 3.50012 8.04513V16.3591C3.50012 19.0981 5.16912 20.8681 7.75312 20.8681H16.5771C19.1611 20.8681 20.8311 19.0981 20.8311 16.3591V12.3311C20.8311 11.9171 21.1671 11.5811 21.5811 11.5811C21.9951 11.5811 22.3311 11.9171 22.3311 12.3311V16.3591C22.3311 19.9531 20.0181 22.3681 16.5771 22.3681Z" fill="#9DA8A7"/>
<path fill-rule="evenodd" clip-rule="evenodd" d="M8.86774 15.4283H11.8447C12.2247 15.4283 12.5807 15.2812 12.8497 15.0122L20.3587 7.50325C20.6667 7.19525 20.8367 6.78525 20.8367 6.34925C20.8367 5.91225 20.6667 5.50125 20.3587 5.19325L19.1417 3.97625C18.5047 3.34125 17.4687 3.34125 16.8307 3.97625L9.35774 11.4493C9.09874 11.7083 8.95174 12.0522 8.94274 12.4172L8.86774 15.4283ZM11.8447 16.928H8.09874C7.89674 16.928 7.70274 16.846 7.56174 16.701C7.42074 16.557 7.34374 16.362 7.34874 16.159L7.44274 12.38C7.46174 11.628 7.76474 10.921 8.29674 10.388H8.29774L15.7707 2.915C16.9927 1.695 18.9797 1.695 20.2017 2.915L21.4187 4.132C22.0117 4.724 22.3377 5.511 22.3367 6.349C22.3367 7.187 22.0107 7.973 21.4187 8.564L13.9097 16.073C13.3587 16.624 12.6247 16.928 11.8447 16.928Z" fill="#9DA8A7"/>
<path fill-rule="evenodd" clip-rule="evenodd" d="M19.731 9.91636C19.539 9.91636 19.347 9.84336 19.201 9.69636L14.635 5.13036C14.342 4.83736 14.342 4.36236 14.635 4.06936C14.928 3.77636 15.402 3.77636 15.695 4.06936L20.261 8.63636C20.554 8.92936 20.554 9.40336 20.261 9.69636C20.115 9.84336 19.923 9.91636 19.731 9.91636Z" fill="#9DA8A7"/>
</svg>
