<svg width="21" height="21" viewBox="0 0 21 21" fill="none" xmlns="http://www.w3.org/2000/svg">
<mask id="mask0_14984_93045" style="mask-type:luminance" maskUnits="userSpaceOnUse" x="1" y="4" width="15" height="14">
<path fill-rule="evenodd" clip-rule="evenodd" d="M1.75 4.375H15.3127V17.9387H1.75V4.375Z" fill="white"/>
</mask>
<g mask="url(#mask0_14984_93045)">
<path fill-rule="evenodd" clip-rule="evenodd" d="M5.99124 5.68902C5.60712 5.68902 5.35949 5.68902 5.31662 5.69077C4.67087 5.7179 4.07499 5.99177 3.64537 6.46077C3.24462 6.89915 3.03812 7.45915 3.06524 8.04015C3.06524 10.5715 3.06612 14.3708 3.07224 14.579C3.17199 15.7909 4.30774 16.7175 5.60799 16.6178C8.01424 16.6213 11.579 16.6291 11.7461 16.623C12.3892 16.5968 12.986 16.3238 13.4156 15.8556C13.8172 15.419 14.0237 14.859 13.9984 14.2806C13.9975 14.271 13.9975 14.2614 13.9975 14.2518C13.9984 11.7493 13.9984 7.95265 13.9922 7.74877C13.8934 6.53077 12.7524 5.59277 11.4451 5.69515C9.63737 5.69252 7.17074 5.68902 5.99124 5.68902M5.37784 17.9387C3.52809 17.9396 1.91459 16.5221 1.76234 14.6627C1.75972 14.6268 1.75097 14.5174 1.75359 8.06955C1.71159 7.16743 2.03884 6.27143 2.67759 5.57405C3.34434 4.84605 4.26397 4.42168 5.26759 4.3788C5.38922 4.37005 9.59622 4.38055 11.3978 4.38405C13.3666 4.2458 15.1437 5.70705 15.3021 7.66793C15.3091 7.7633 15.3117 9.97268 15.31 14.2383C15.3467 15.1623 15.0177 16.0522 14.3825 16.7434C13.7148 17.4706 12.7943 17.8932 11.7916 17.9343C11.6691 17.9431 7.46034 17.9317 5.65609 17.9282C5.56334 17.9352 5.47059 17.9387 5.37784 17.9387" fill="white"/>
</g>
<path fill-rule="evenodd" clip-rule="evenodd" d="M18.2161 16.0556C17.8215 16.0556 17.4321 15.92 17.111 15.6566L14.2401 13.2976C13.9601 13.0675 13.9199 12.6536 14.15 12.3736C14.3793 12.0945 14.7931 12.0525 15.0731 12.2835L17.9431 14.6425C18.1365 14.8 18.3308 14.7353 18.406 14.6985C18.4813 14.6635 18.6554 14.5541 18.6554 14.3056L18.6659 7.87527C18.6668 7.62677 18.4918 7.5174 18.4165 7.48152C18.3421 7.44652 18.1453 7.3809 17.9536 7.5384L15.0723 9.89652C14.7905 10.1266 14.3784 10.0855 14.1491 9.80377C13.919 9.52377 13.961 9.11077 14.241 8.88152L17.1224 6.52252C17.6509 6.0894 18.3623 6.00452 18.9791 6.2959C19.596 6.58902 19.9793 7.19452 19.9784 7.87702L19.9679 14.3074C19.967 14.9899 19.5829 15.5954 18.9669 15.8859C18.7254 16.0005 18.4699 16.0556 18.2161 16.0556" fill="white"/>
</svg>
