<svg width="14" height="14" viewBox="0 0 14 14" fill="none" xmlns="http://www.w3.org/2000/svg">
<mask id="mask0_15358_11876" style="mask-type:luminance" maskUnits="userSpaceOnUse" x="0" y="0" width="14" height="14">
<path fill-rule="evenodd" clip-rule="evenodd" d="M0.583374 0.583374H13.121V13.1214H0.583374V0.583374Z" fill="white"/>
</mask>
<g mask="url(#mask0_15358_11876)">
<path fill-rule="evenodd" clip-rule="evenodd" d="M3.5633 11.4771C3.90163 11.4771 4.22071 11.6055 4.55846 11.7414C6.62755 12.698 9.07463 12.2629 10.6689 10.6692C12.7724 8.56454 12.7724 5.14096 10.6689 3.03746C9.65038 2.01896 8.29588 1.45837 6.85388 1.45837C5.4113 1.45837 4.05621 2.01954 3.0383 3.03804C1.44346 4.63171 1.00946 7.07879 1.95738 9.12804C2.09388 9.46579 2.22571 9.79479 2.22571 10.1366C2.22571 10.4779 2.10846 10.8215 2.00521 11.1248C1.92005 11.3745 1.79113 11.7513 1.87396 11.8341C1.95505 11.9181 2.33421 11.7857 2.58446 11.7C2.88488 11.5973 3.22555 11.4795 3.5633 11.4771ZM6.8393 13.1215C5.94796 13.1215 5.0508 12.9331 4.21138 12.5446C3.96405 12.4455 3.73246 12.3521 3.56621 12.3521C3.37488 12.3533 3.11763 12.442 2.86913 12.5277C2.3593 12.7027 1.72463 12.9209 1.25505 12.453C0.787212 11.9846 1.00305 11.3517 1.17688 10.8425C1.26263 10.5916 1.35071 10.3326 1.35071 10.1366C1.35071 9.97563 1.27313 9.77029 1.15413 9.47454C0.0615457 7.11496 0.566712 4.27121 2.41996 2.41912C3.60296 1.23554 5.17738 0.583374 6.8533 0.583374C8.52921 0.583374 10.1042 1.23496 11.2872 2.41854C13.7325 4.86387 13.7325 8.84221 11.2872 11.2875C10.0885 12.4869 8.47438 13.1215 6.8393 13.1215Z" fill="black"/>
</g>
<path fill-rule="evenodd" clip-rule="evenodd" d="M9.15622 7.67851C8.83422 7.67851 8.57056 7.41776 8.57056 7.09517C8.57056 6.77259 8.82897 6.51184 9.15097 6.51184H9.15622C9.47822 6.51184 9.73956 6.77259 9.73956 7.09517C9.73956 7.41776 9.47822 7.67851 9.15622 7.67851Z" fill="black"/>
<path fill-rule="evenodd" clip-rule="evenodd" d="M6.81772 7.67851C6.49572 7.67851 6.23206 7.41776 6.23206 7.09517C6.23206 6.77259 6.48989 6.51184 6.81247 6.51184H6.81772C7.13972 6.51184 7.40106 6.77259 7.40106 7.09517C7.40106 7.41776 7.13972 7.67851 6.81772 7.67851Z" fill="black"/>
<path fill-rule="evenodd" clip-rule="evenodd" d="M4.4791 7.67851C4.1571 7.67851 3.89343 7.41776 3.89343 7.09517C3.89343 6.77259 4.15185 6.51184 4.47385 6.51184H4.4791C4.8011 6.51184 5.06243 6.77259 5.06243 7.09517C5.06243 7.41776 4.8011 7.67851 4.4791 7.67851Z" fill="black"/>
</svg>
